<?xml version="1.0" encoding="UTF-8" standalone="no"?>
<!DOCTYPE svg PUBLIC "-//W3C//DTD SVG 1.1//EN" "http://www.w3.org/Graphics/SVG/1.1/DTD/svg11.dtd">
<svg xmlns="http://www.w3.org/2000/svg" version="1.1" viewBox="0 0 128 128">
<g stroke-width="2.00" fill="none" stroke-linecap="butt">
<path stroke="#101110" vector-effect="non-scaling-stroke" d="
  M 127.25 74.96
  L 127.04 81.50"
/>
<path stroke="#101110" vector-effect="non-scaling-stroke" d="
  M 119.00 85.96
  Q 117.39 84.48 115.50 85.46"
/>
<path stroke="#101110" vector-effect="non-scaling-stroke" d="
  M 113.25 85.29
  Q 111.48 85.98 112.04 88.00"
/>
<path stroke="#101110" vector-effect="non-scaling-stroke" d="
  M 105.78 83.93
  Q 95.17 82.73 84.50 83.21"
/>
<path stroke="#101110" vector-effect="non-scaling-stroke" d="
  M 80.00 82.96
  L 80.00 81.29"
/>
<path stroke="#80623c" vector-effect="non-scaling-stroke" d="
  M 80.00 81.29
  L 107.36 81.79
  A 2.18 2.17 0.5 0 1 109.50 83.96
  L 109.50 86.43
  Q 109.50 87.04 110.10 87.16
  L 110.44 87.23
  Q 111.02 87.34 111.23 86.79
  C 111.79 85.27 112.04 81.49 114.83 83.15
  Q 115.38 83.48 115.47 82.85
  C 115.62 81.75 115.69 81.03 114.96 80.08
  Q 111.03 75.00 106.19 70.79
  C 103.47 68.42 100.26 68.07 98.29 63.98
  Q 98.05 63.49 97.58 63.20
  L 93.37 60.68
  Q 92.91 60.41 92.62 59.95
  Q 91.24 57.75 88.85 56.61
  Q 88.39 56.39 88.21 55.92
  Q 86.88 52.41 83.36 51.30
  Q 82.79 51.12 82.49 50.60
  Q 80.55 47.25 76.64 46.65
  Q 76.13 46.57 75.72 46.27
  L 72.80 44.19
  Q 72.40 43.90 71.94 44.05
  L 56.33 48.89
  Q 54.97 49.31 56.31 49.78
  C 65.16 52.89 53.50 55.59 51.22 55.69
  Q 50.80 55.71 50.44 55.47
  Q 49.83 55.05 49.08 54.98
  Q 48.01 54.89 48.77 55.65
  L 50.04 56.91
  Q 50.43 57.31 50.01 57.68
  Q 48.12 59.33 45.81 58.45
  Q 44.70 58.03 45.44 58.96
  Q 47.26 61.26 44.79 62.72
  Q 36.64 67.55 29.32 62.14
  Q 28.86 61.80 28.40 62.12
  L 26.96 63.11
  Q 26.13 63.67 27.11 63.88
  C 31.61 64.86 26.50 70.22 21.92 69.04
  Q 21.41 68.91 21.19 69.39
  C 20.27 71.38 18.77 74.14 16.03 72.32
  Q 15.62 72.05 15.18 72.28
  Q 13.87 72.97 13.02 74.21
  Q 12.22 75.37 13.51 74.79
  C 23.56 70.29 21.54 83.15 17.96 87.34
  A 0.32 0.31 10.1 0 0 18.31 87.84
  Q 31.51 82.87 45.49 81.03
  Q 48.33 80.65 48.50 82.96"
/>
<path stroke="#101110" vector-effect="non-scaling-stroke" d="
  M 48.50 82.96
  Q 45.95 81.41 43.50 82.96"
/>
<path stroke="#101110" vector-effect="non-scaling-stroke" d="
  M 41.00 83.29
  Q 38.95 82.76 37.29 84.00"
/>
<path stroke="#4c4436" vector-effect="non-scaling-stroke" d="
  M 8.50 93.96
  Q 9.05 93.12 8.14 92.41
  A 0.61 0.60 -48.4 0 0 7.34 92.46
  Q 6.49 93.31 7.50 94.04"
/>
<path stroke="#101110" vector-effect="non-scaling-stroke" d="
  M 6.71 95.00
  L 4.25 95.29"
/>
<path stroke="#101110" vector-effect="non-scaling-stroke" d="
  M 3.50 93.29
  Q 3.75 93.12 3.76 92.88
  Q 3.79 92.39 3.32 92.24
  L 1.53 91.64
  Q 1.08 91.49 1.03 91.02
  L 0.75 87.96"
/>
<path stroke="#76361b" vector-effect="non-scaling-stroke" d="
  M 121.45 71.01
  L 79.17 39.50
  Q 78.68 39.13 78.10 39.31
  Q 75.22 40.18 73.24 42.48
  Q 72.88 42.90 73.31 43.24
  C 76.30 45.67 81.05 46.07 83.14 49.78
  Q 83.40 50.24 83.90 50.40
  Q 87.65 51.64 89.20 55.37
  Q 89.39 55.83 89.84 56.04
  Q 92.32 57.17 93.63 59.51
  Q 93.91 60.01 94.46 60.21
  Q 98.73 61.83 100.76 65.82
  Q 101.01 66.31 101.50 66.57
  Q 109.37 70.65 114.30 77.95
  A 0.99 0.99 0.0 0 0 116.10 77.59
  Q 116.99 73.15 121.29 71.90
  Q 122.27 71.62 121.45 71.01"
/>
<path stroke="#76361b" vector-effect="non-scaling-stroke" d="
  M 57.64 51.63
  C 53.34 49.19 51.03 50.60 46.84 52.41
  A 0.58 0.58 0.0 0 0 46.85 53.48
  Q 52.28 55.70 57.59 53.20
  A 0.89 0.88 47.0 0 0 57.64 51.63"
/>
<path stroke="#80623c" vector-effect="non-scaling-stroke" d="
  M 46.41 54.30
  C 45.13 52.43 39.93 55.30 38.64 56.21
  Q 38.15 56.55 38.73 56.66
  L 42.24 57.31
  Q 42.79 57.41 43.03 56.91
  Q 43.88 55.08 46.03 55.05
  A 0.48 0.47 72.2 0 0 46.41 54.30"
/>
<path stroke="#80623c" vector-effect="non-scaling-stroke" d="
  M 48.43 56.51
  Q 46.29 54.95 44.27 56.55
  Q 43.65 57.04 44.38 57.33
  Q 46.16 58.04 48.04 57.90
  A 0.77 0.77 0.0 0 0 48.43 56.51"
/>
<path stroke="#76361b" vector-effect="non-scaling-stroke" d="
  M 31.28 62.40
  Q 38.37 65.86 45.06 61.30
  Q 45.67 60.89 45.18 60.35
  C 41.44 56.18 34.16 57.09 30.96 60.83
  A 1.02 1.01 33.5 0 0 31.28 62.40"
/>
<path stroke="#4c4436" vector-effect="non-scaling-stroke" d="
  M 24.00 66.96
  Q 24.73 66.36 25.07 65.55
  Q 25.31 64.98 24.70 65.00
  Q 23.11 65.04 22.75 66.71"
/>
<path stroke="#80623c" vector-effect="non-scaling-stroke" d="
  M 22.75 66.71
  L 21.21 67.75"
/>
<path stroke="#101110" vector-effect="non-scaling-stroke" d="
  M 21.21 67.75
  L 20.00 68.71"
/>
<path stroke="#80623c" vector-effect="non-scaling-stroke" d="
  M 20.00 68.71
  Q 17.86 69.47 16.25 71.06
  Q 15.82 71.48 16.34 71.78
  C 18.32 72.90 19.82 70.90 20.29 69.25"
/>
<path stroke="#101110" vector-effect="non-scaling-stroke" d="
  M 20.29 69.25
  L 21.50 68.21"
/>
<path stroke="#80623c" vector-effect="non-scaling-stroke" d="
  M 21.50 68.21
  Q 25.78 69.42 28.02 66.04
  Q 28.36 65.54 27.90 65.15
  L 26.65 64.07
  Q 26.21 63.70 25.85 64.15
  L 25.47 64.62
  Q 25.36 64.77 25.51 64.87
  L 25.82 65.07
  Q 26.33 65.40 26.05 65.94
  Q 25.44 67.13 24.00 66.96"
/>
<path stroke="#8f724b" vector-effect="non-scaling-stroke" d="
  M 21.50 68.21
  L 21.21 67.75"
/>
<path stroke="#cba570" vector-effect="non-scaling-stroke" d="
  M 22.75 66.71
  L 24.00 66.96"
/>
<path stroke="#8f724b" vector-effect="non-scaling-stroke" d="
  M 20.29 69.25
  L 20.00 68.71"
/>
<path stroke="#76361b" vector-effect="non-scaling-stroke" d="
  M 119.9517 85.0431
  A 6.32 4.78 105.4 0 0 126.2384 80.2194
  A 6.32 4.78 105.4 0 0 123.3083 72.8569
  A 6.32 4.78 105.4 0 0 117.0216 77.6806
  A 6.32 4.78 105.4 0 0 119.9517 85.0431"
/>
<path stroke="#76361b" vector-effect="non-scaling-stroke" d="
  M 18.64 75.58
  C 8.65 73.07 4.27 87.14 13.55 87.71
  C 19.34 88.07 20.56 80.43 19.32 76.23
  Q 19.16 75.71 18.64 75.58"
/>
<path stroke="#80623c" vector-effect="non-scaling-stroke" d="
  M 10.61 92.21
  Q 11.43 90.16 13.48 89.38
  A 0.37 0.37 0.0 0 0 13.39 88.66
  Q 7.81 88.01 7.15 82.46
  Q 7.03 81.45 6.44 82.28
  L 1.92 88.60
  A 1.34 1.34 0.0 0 0 2.98 90.72
  Q 5.40 90.78 4.95 93.28
  Q 4.88 93.65 5.20 93.84
  L 5.58 94.06
  Q 6.08 94.36 6.03 93.78
  Q 5.78 91.11 8.18 90.69
  Q 8.61 90.61 8.84 91.00
  L 9.60 92.29
  Q 10.19 93.29 10.61 92.21"
/>
<path stroke="#8f724b" vector-effect="non-scaling-stroke" d="
  M 80.00 81.29
  L 60.55 80.52
  A 2.13 2.12 -85.6 0 0 58.36 82.41
  C 58.11 84.65 58.66 90.80 55.75 91.06
  A 1.43 1.43 0.0 0 1 54.20 89.48
  C 54.42 87.42 55.60 83.08 52.06 83.30
  Q 51.52 83.34 51.26 83.81
  L 50.09 85.97
  Q 49.79 86.53 49.41 86.02
  Q 48.41 84.71 48.50 82.96"
/>
<path stroke="#80623c" vector-effect="non-scaling-stroke" d="
  M 76.9050 53.0952
  A 7.38 2.80 13.2 0 0 70.3594 48.6840
  A 7.38 2.80 13.2 0 0 62.5350 49.7248
  A 7.38 2.80 13.2 0 0 69.0806 54.1360
  A 7.38 2.80 13.2 0 0 76.9050 53.0952"
/>
<path stroke="#80623c" vector-effect="non-scaling-stroke" d="
  M 84.45 53.83
  L 80.66 52.15
  Q 80.10 51.90 79.63 52.30
  L 78.44 53.31
  Q 77.88 53.79 78.55 54.11
  C 80.15 54.89 83.69 57.31 84.77 54.61
  A 0.61 0.60 23.1 0 0 84.45 53.83"
/>
<path stroke="#8f724b" vector-effect="non-scaling-stroke" d="
  M 52.25 57.00
  L 51.82 57.23
  Q 51.52 57.39 51.40 57.70
  C 49.65 62.02 56.02 62.03 58.48 61.17
  Q 58.95 61.00 59.10 60.53
  C 60.52 56.20 55.48 56.41 53.04 56.30
  Q 52.48 56.27 52.25 57.00"
/>
<path stroke="#5b5445" vector-effect="non-scaling-stroke" d="
  M 52.25 57.00
  Q 53.56 57.78 54.16 59.10
  Q 54.26 59.33 54.02 59.41
  Q 53.87 59.46 53.72 59.51
  Q 53.32 59.64 53.20 59.24
  L 52.91 58.32
  Q 52.76 57.85 52.32 58.09
  L 51.91 58.31
  Q 51.07 58.75 51.76 59.39
  L 53.45 60.96
  Q 53.97 61.45 54.57 61.07
  Q 55.48 60.49 56.46 60.75"
/>
<path stroke="#8f724b" vector-effect="non-scaling-stroke" d="
  M 56.46 60.75
  C 58.49 61.27 59.80 58.98 57.75 57.96"
/>
<path stroke="#5b5445" vector-effect="non-scaling-stroke" d="
  M 57.75 57.96
  L 57.20 57.50
  Q 56.81 57.19 56.32 57.17
  L 52.25 57.00"
/>
<path stroke="#cba570" vector-effect="non-scaling-stroke" d="
  M 57.75 57.96
  Q 56.69 58.22 56.79 59.50"
/>
<path stroke="#4c4436" vector-effect="non-scaling-stroke" d="
  M 56.79 59.50
  L 56.75 58.60
  Q 56.71 57.91 56.22 58.40
  Q 55.43 59.19 56.25 60.04"
/>
<path stroke="#cba570" vector-effect="non-scaling-stroke" d="
  M 56.25 60.04
  L 56.46 60.75"
/>
<path stroke="#80623c" vector-effect="non-scaling-stroke" d="
  M 56.79 59.50
  L 56.25 60.04"
/>
<path stroke="#80623c" vector-effect="non-scaling-stroke" d="
  M 65.93 64.23
  L 64.23 64.26
  A 1.05 1.05 0.0 0 0 63.28 65.72
  Q 65.06 69.93 69.21 69.46
  Q 70.70 69.28 70.40 67.58
  Q 70.31 67.05 70.00 66.62
  L 68.57 64.64
  Q 68.22 64.16 68.82 64.20
  L 74.30 64.60
  A 1.80 1.80 0.0 0 0 76.17 62.34
  C 74.53 56.17 64.46 53.79 60.66 58.86
  Q 60.27 59.38 60.58 59.95
  Q 62.18 62.89 65.56 63.14
  Q 65.78 63.16 65.94 63.32
  L 66.19 63.57
  Q 66.83 64.21 65.93 64.23"
/>
<path stroke="#80623c" vector-effect="non-scaling-stroke" d="
  M 83.6134 60.9338
  A 0.74 0.74 0.0 0 0 83.2640 59.9473
  L 78.8775 57.8550
  A 0.74 0.74 0.0 0 0 77.8910 58.2044
  L 76.9266 60.2262
  A 0.74 0.74 0.0 0 0 77.2760 61.2127
  L 81.6625 63.3050
  A 0.74 0.74 0.0 0 0 82.6490 62.9556
  L 83.6134 60.9338"
/>
<path stroke="#8f724b" vector-effect="non-scaling-stroke" d="
  M 53.00 71.46
  Q 54.06 71.22 54.25 71.96"
/>
<path stroke="#80623c" vector-effect="non-scaling-stroke" d="
  M 54.25 71.96
  Q 52.37 73.51 53.06 75.41
  C 56.69 85.45 70.23 74.29 58.44 71.16
  Q 57.68 70.95 58.41 70.66
  L 61.16 69.58
  A 1.88 1.87 66.7 0 0 62.17 67.03
  C 59.56 61.49 50.32 61.61 45.99 65.69
  A 2.26 2.25 50.7 0 0 45.70 68.63
  Q 48.21 72.17 53.00 71.46"
/>
<path stroke="#101110" vector-effect="non-scaling-stroke" d="
  M 54.25 71.96
  L 55.50 72.04"
/>
<path stroke="#80623c" vector-effect="non-scaling-stroke" d="
  M 55.50 72.04
  L 54.09 73.33
  Q 53.72 73.66 53.76 74.16
  C 54.07 77.98 58.61 79.88 61.38 77.30
  C 64.80 74.11 58.81 71.59 56.50 71.54"
/>
<path stroke="#101110" vector-effect="non-scaling-stroke" d="
  M 56.50 71.54
  Q 54.74 71.01 53.00 71.46"
/>
<path stroke="#8f724b" vector-effect="non-scaling-stroke" d="
  M 56.50 71.54
  L 55.50 72.04"
/>
<path stroke="#80623c" vector-effect="non-scaling-stroke" d="
  M 98.7820 71.1366
  A 8.29 3.65 17.6 0 0 91.9837 65.1509
  A 8.29 3.65 17.6 0 0 82.9780 66.1234
  A 8.29 3.65 17.6 0 0 89.7763 72.1091
  A 8.29 3.65 17.6 0 0 98.7820 71.1366"
/>
<path stroke="#cba570" vector-effect="non-scaling-stroke" d="
  M 41.25 76.46
  L 41.96 76.25"
/>
<path stroke="#8f724b" vector-effect="non-scaling-stroke" d="
  M 41.96 76.25
  Q 43.94 77.08 46.42 76.19
  A 0.96 0.96 0.0 0 0 46.74 74.58
  C 45.90 73.81 43.17 72.13 42.46 74.00"
/>
<path stroke="#cba570" vector-effect="non-scaling-stroke" d="
  M 42.46 74.00
  L 41.54 74.00"
/>
<path stroke="#80623c" vector-effect="non-scaling-stroke" d="
  M 41.54 74.00
  C 40.61 64.37 19.93 69.93 25.13 77.99
  C 27.86 82.23 39.22 80.53 41.25 76.46"
/>
<path stroke="#4c4436" vector-effect="non-scaling-stroke" d="
  M 41.54 74.00
  L 41.25 76.46"
/>
<path stroke="#5b5445" vector-effect="non-scaling-stroke" d="
  M 41.96 76.25
  L 42.46 74.00"
/>
<path stroke="#80623c" vector-effect="non-scaling-stroke" d="
  M 85.13 76.03
  C 82.75 70.76 70.01 65.87 68.02 74.70
  A 1.59 1.59 0.0 0 0 69.28 76.61
  Q 76.87 78.00 84.53 77.09
  A 0.76 0.75 74.6 0 0 85.13 76.03"
/>
<path stroke="#8f724b" vector-effect="non-scaling-stroke" d="
  M 109.8759 78.0124
  A 4.49 2.93 28.5 0 0 107.3281 73.2951
  A 4.49 2.93 28.5 0 0 101.9841 73.7276
  A 4.49 2.93 28.5 0 0 104.5319 78.4449
  A 4.49 2.93 28.5 0 0 109.8759 78.0124"
/>
<path stroke="#80623c" vector-effect="non-scaling-stroke" d="
  M 99.71 76.94
  C 99.45 74.05 96.79 73.21 94.26 74.02
  Q 93.72 74.19 93.87 74.74
  Q 94.88 78.59 99.27 77.55
  Q 99.75 77.44 99.71 76.94"
/>
<path stroke="#76361b" vector-effect="non-scaling-stroke" d="
  M 75.8067 52.8112
  A 6.18 1.59 13.2 0 0 70.1531 49.8520
  A 6.18 1.59 13.2 0 0 63.7733 49.9888
  A 6.18 1.59 13.2 0 0 69.4269 52.9480
  A 6.18 1.59 13.2 0 0 75.8067 52.8112"
/>
<path stroke="#80623c" vector-effect="non-scaling-stroke" d="
  M 83.6214 54.9242
  A 0.61 0.61 0.0 0 0 83.3249 54.1141
  L 80.4224 52.7668
  A 0.61 0.61 0.0 0 0 79.6123 53.0632
  L 79.5786 53.1358
  A 0.61 0.61 0.0 0 0 79.8751 53.9459
  L 82.7776 55.2932
  A 0.61 0.61 0.0 0 0 83.5877 54.9968
  L 83.6214 54.9242"
/>
<path stroke="#76361b" vector-effect="non-scaling-stroke" d="
  M 74.98 62.77
  C 74.98 57.47 64.02 55.49 61.83 59.12
  A 1.15 1.15 0.0 0 0 62.28 60.74
  Q 67.91 63.70 74.39 63.40
  Q 74.98 63.37 74.98 62.77"
/>
<path stroke="#80623c" vector-effect="non-scaling-stroke" d="
  M 64.25 65.96
  C 65.24 67.79 66.59 68.84 68.79 68.49
  A 0.76 0.76 0.0 0 0 69.40 67.53
  Q 68.30 63.53 64.54 65.12
  Q 63.93 65.37 64.25 65.96"
/>
<path stroke="#80623c" vector-effect="non-scaling-stroke" d="
  M 82.6444 61.3262
  A 0.74 0.74 0.0 0 0 82.2865 60.3428
  L 79.1325 58.8721
  A 0.74 0.74 0.0 0 0 78.1491 59.2300
  L 77.8956 59.7738
  A 0.74 0.74 0.0 0 0 78.2535 60.7572
  L 81.4075 62.2279
  A 0.74 0.74 0.0 0 0 82.3909 61.8700
  L 82.6444 61.3262"
/>
<path stroke="#76361b" vector-effect="non-scaling-stroke" d="
  M 61.20 67.80
  C 59.81 62.82 51.20 63.56 47.73 65.18
  A 2.08 2.07 61.8 0 0 46.84 68.13
  C 49.06 71.78 57.22 70.36 60.84 68.59
  Q 61.35 68.35 61.20 67.80"
/>
<path stroke="#76361b" vector-effect="non-scaling-stroke" d="
  M 97.6083 70.7423
  A 7.03 2.52 17.4 0 0 91.6536 66.2353
  A 7.03 2.52 17.4 0 0 84.1917 66.5377
  A 7.03 2.52 17.4 0 0 90.1464 71.0447
  A 7.03 2.52 17.4 0 0 97.6083 70.7423"
/>
<path stroke="#76361b" vector-effect="non-scaling-stroke" d="
  M 40.36 75.43
  C 43.17 68.88 26.75 67.91 25.76 75.07
  C 24.86 81.63 38.64 79.45 40.36 75.43"
/>
<path stroke="#76361b" vector-effect="non-scaling-stroke" d="
  M 82.80 74.59
  C 78.78 71.63 71.75 67.99 69.13 74.52
  A 0.59 0.58 -73.2 0 0 69.55 75.31
  Q 75.87 76.59 82.35 76.14
  Q 84.68 75.98 82.80 74.59"
/>
<path stroke="#80623c" vector-effect="non-scaling-stroke" d="
  M 60.7680 75.6203
  A 2.73 2.06 11.2 0 0 58.4901 73.0692
  A 2.73 2.06 11.2 0 0 55.4120 74.5597
  A 2.73 2.06 11.2 0 0 57.6899 77.1108
  A 2.73 2.06 11.2 0 0 60.7680 75.6203"
/>
<path stroke="#8f724b" vector-effect="non-scaling-stroke" d="
  M 105.21 77.75
  Q 106.73 78.29 108.32 78.19
  Q 108.86 78.15 109.07 77.65
  Q 109.53 76.58 108.50 75.71"
/>
<path stroke="#5b5445" vector-effect="non-scaling-stroke" d="
  M 108.50 75.71
  C 108.04 73.75 105.81 74.20 104.95 75.23
  Q 104.49 75.78 105.19 75.93
  Q 106.11 76.12 106.00 76.96"
/>
<path stroke="#8f724b" vector-effect="non-scaling-stroke" d="
  M 106.00 76.96
  L 105.29 77.25"
/>
<path stroke="#5b5445" vector-effect="non-scaling-stroke" d="
  M 105.29 77.25
  Q 104.24 76.13 104.22 74.69
  Q 104.21 74.35 104.54 74.27
  L 105.51 74.05
  A 0.70 0.59 27.7 0 0 105.02 72.85
  C 100.44 73.80 102.46 76.76 105.21 77.75"
/>
<path stroke="#cba570" vector-effect="non-scaling-stroke" d="
  M 105.29 77.25
  L 105.21 77.75"
/>
<path stroke="#80623c" vector-effect="non-scaling-stroke" d="
  M 108.04 76.00
  L 107.79 76.78
  Q 107.68 77.13 107.32 77.06
  L 106.75 76.96"
/>
<path stroke="#cba570" vector-effect="non-scaling-stroke" d="
  M 108.50 75.71
  L 108.04 76.00"
/>
<path stroke="#4c4436" vector-effect="non-scaling-stroke" d="
  M 108.04 76.00
  L 107.83 75.73
  Q 107.62 75.44 107.29 75.58
  Q 106.45 75.94 106.75 76.96"
/>
<path stroke="#cba570" vector-effect="non-scaling-stroke" d="
  M 106.75 76.96
  L 106.00 76.96"
/>
<path stroke="#8f724b" vector-effect="non-scaling-stroke" d="
  M 45.96 74.90
  Q 44.43 73.18 42.78 74.47
  Q 42.04 75.04 42.88 75.45
  Q 44.26 76.11 45.77 75.60
  A 0.44 0.44 0.0 0 0 45.96 74.90"
/>
<path stroke="#80623c" vector-effect="non-scaling-stroke" d="
  M 59.7032 75.5046
  A 1.10 1.10 0.0 0 0 59.0581 74.0890
  L 57.9154 73.6617
  A 1.10 1.10 0.0 0 0 56.4998 74.3068
  L 56.4368 74.4754
  A 1.10 1.10 0.0 0 0 57.0819 75.8910
  L 58.2246 76.3183
  A 1.10 1.10 0.0 0 0 59.6402 75.6732
  L 59.7032 75.5046"
/>
<path stroke="#80623c" vector-effect="non-scaling-stroke" d="
  M 98.4813 76.0447
  A 0.83 0.83 0.0 0 0 97.9033 75.0230
  L 96.0338 74.5046
  A 0.83 0.83 0.0 0 0 95.0122 75.0826
  L 94.9587 75.2753
  A 0.83 0.83 0.0 0 0 95.5367 76.2970
  L 97.4062 76.8154
  A 0.83 0.83 0.0 0 0 98.4278 76.2374
  L 98.4813 76.0447"
/>
<path stroke="#5b5445" vector-effect="non-scaling-stroke" d="
  M 52.75 86.04
  Q 53.23 85.67 53.21 85.05
  A 0.46 0.46 0.0 0 0 52.44 84.71
  Q 51.44 85.59 51.29 86.75"
/>
</g>
<path fill="#010101" d="
  M 127.25 74.96
  L 127.04 81.50
  Q 125.03 87.42 119.00 85.96
  Q 117.39 84.48 115.50 85.46
  Q 114.41 84.66 113.25 85.29
  Q 111.48 85.98 112.04 88.00
  Q 110.71 89.69 109.07 88.67
  C 106.86 87.29 109.54 84.17 105.78 83.93
  Q 95.17 82.73 84.50 83.21
  L 80.00 82.96
  L 80.00 81.29
  L 107.36 81.79
  A 2.18 2.17 0.5 0 1 109.50 83.96
  L 109.50 86.43
  Q 109.50 87.04 110.10 87.16
  L 110.44 87.23
  Q 111.02 87.34 111.23 86.79
  C 111.79 85.27 112.04 81.49 114.83 83.15
  Q 115.38 83.48 115.47 82.85
  C 115.62 81.75 115.69 81.03 114.96 80.08
  Q 111.03 75.00 106.19 70.79
  C 103.47 68.42 100.26 68.07 98.29 63.98
  Q 98.05 63.49 97.58 63.20
  L 93.37 60.68
  Q 92.91 60.41 92.62 59.95
  Q 91.24 57.75 88.85 56.61
  Q 88.39 56.39 88.21 55.92
  Q 86.88 52.41 83.36 51.30
  Q 82.79 51.12 82.49 50.60
  Q 80.55 47.25 76.64 46.65
  Q 76.13 46.57 75.72 46.27
  L 72.80 44.19
  Q 72.40 43.90 71.94 44.05
  L 56.33 48.89
  Q 54.97 49.31 56.31 49.78
  C 65.16 52.89 53.50 55.59 51.22 55.69
  Q 50.80 55.71 50.44 55.47
  Q 49.83 55.05 49.08 54.98
  Q 48.01 54.89 48.77 55.65
  L 50.04 56.91
  Q 50.43 57.31 50.01 57.68
  Q 48.12 59.33 45.81 58.45
  Q 44.70 58.03 45.44 58.96
  Q 47.26 61.26 44.79 62.72
  Q 36.64 67.55 29.32 62.14
  Q 28.86 61.80 28.40 62.12
  L 26.96 63.11
  Q 26.13 63.67 27.11 63.88
  C 31.61 64.86 26.50 70.22 21.92 69.04
  Q 21.41 68.91 21.19 69.39
  C 20.27 71.38 18.77 74.14 16.03 72.32
  Q 15.62 72.05 15.18 72.28
  Q 13.87 72.97 13.02 74.21
  Q 12.22 75.37 13.51 74.79
  C 23.56 70.29 21.54 83.15 17.96 87.34
  A 0.32 0.31 10.1 0 0 18.31 87.84
  Q 31.51 82.87 45.49 81.03
  Q 48.33 80.65 48.50 82.96
  Q 45.95 81.41 43.50 82.96
  L 41.00 83.29
  Q 38.95 82.76 37.29 84.00
  Q 25.58 87.54 13.84 90.98
  C 11.55 91.65 11.69 95.29 8.50 93.96
  Q 9.05 93.12 8.14 92.41
  A 0.61 0.60 -48.4 0 0 7.34 92.46
  Q 6.49 93.31 7.50 94.04
  L 6.71 95.00
  L 4.25 95.29
  L 3.50 93.29
  Q 3.75 93.12 3.76 92.88
  Q 3.79 92.39 3.32 92.24
  L 1.53 91.64
  Q 1.08 91.49 1.03 91.02
  L 0.75 87.96
  C 6.65 79.61 12.82 71.73 21.02 65.66
  Q 37.84 53.19 57.26 47.55
  Q 66.32 44.92 70.66 43.36
  Q 71.18 43.17 71.51 42.73
  Q 74.26 39.08 78.75 38.27
  Q 79.26 38.18 79.69 38.49
  Q 102.29 55.30 124.83 72.16
  Q 125.49 72.65 127.25 74.96
  Z
  M 121.45 71.01
  L 79.17 39.50
  Q 78.68 39.13 78.10 39.31
  Q 75.22 40.18 73.24 42.48
  Q 72.88 42.90 73.31 43.24
  C 76.30 45.67 81.05 46.07 83.14 49.78
  Q 83.40 50.24 83.90 50.40
  Q 87.65 51.64 89.20 55.37
  Q 89.39 55.83 89.84 56.04
  Q 92.32 57.17 93.63 59.51
  Q 93.91 60.01 94.46 60.21
  Q 98.73 61.83 100.76 65.82
  Q 101.01 66.31 101.50 66.57
  Q 109.37 70.65 114.30 77.95
  A 0.99 0.99 0.0 0 0 116.10 77.59
  Q 116.99 73.15 121.29 71.90
  Q 122.27 71.62 121.45 71.01
  Z
  M 57.64 51.63
  C 53.34 49.19 51.03 50.60 46.84 52.41
  A 0.58 0.58 0.0 0 0 46.85 53.48
  Q 52.28 55.70 57.59 53.20
  A 0.89 0.88 47.0 0 0 57.64 51.63
  Z
  M 46.41 54.30
  C 45.13 52.43 39.93 55.30 38.64 56.21
  Q 38.15 56.55 38.73 56.66
  L 42.24 57.31
  Q 42.79 57.41 43.03 56.91
  Q 43.88 55.08 46.03 55.05
  A 0.48 0.47 72.2 0 0 46.41 54.30
  Z
  M 48.43 56.51
  Q 46.29 54.95 44.27 56.55
  Q 43.65 57.04 44.38 57.33
  Q 46.16 58.04 48.04 57.90
  A 0.77 0.77 0.0 0 0 48.43 56.51
  Z
  M 31.28 62.40
  Q 38.37 65.86 45.06 61.30
  Q 45.67 60.89 45.18 60.35
  C 41.44 56.18 34.16 57.09 30.96 60.83
  A 1.02 1.01 33.5 0 0 31.28 62.40
  Z
  M 24.00 66.96
  Q 24.73 66.36 25.07 65.55
  Q 25.31 64.98 24.70 65.00
  Q 23.11 65.04 22.75 66.71
  L 21.21 67.75
  L 20.00 68.71
  Q 17.86 69.47 16.25 71.06
  Q 15.82 71.48 16.34 71.78
  C 18.32 72.90 19.82 70.90 20.29 69.25
  L 21.50 68.21
  Q 25.78 69.42 28.02 66.04
  Q 28.36 65.54 27.90 65.15
  L 26.65 64.07
  Q 26.21 63.70 25.85 64.15
  L 25.47 64.62
  Q 25.36 64.77 25.51 64.87
  L 25.82 65.07
  Q 26.33 65.40 26.05 65.94
  Q 25.44 67.13 24.00 66.96
  Z
  M 119.9517 85.0431
  A 6.32 4.78 105.4 0 0 126.2384 80.2194
  A 6.32 4.78 105.4 0 0 123.3083 72.8569
  A 6.32 4.78 105.4 0 0 117.0216 77.6806
  A 6.32 4.78 105.4 0 0 119.9517 85.0431
  Z
  M 18.64 75.58
  C 8.65 73.07 4.27 87.14 13.55 87.71
  C 19.34 88.07 20.56 80.43 19.32 76.23
  Q 19.16 75.71 18.64 75.58
  Z
  M 10.61 92.21
  Q 11.43 90.16 13.48 89.38
  A 0.37 0.37 0.0 0 0 13.39 88.66
  Q 7.81 88.01 7.15 82.46
  Q 7.03 81.45 6.44 82.28
  L 1.92 88.60
  A 1.34 1.34 0.0 0 0 2.98 90.72
  Q 5.40 90.78 4.95 93.28
  Q 4.88 93.65 5.20 93.84
  L 5.58 94.06
  Q 6.08 94.36 6.03 93.78
  Q 5.78 91.11 8.18 90.69
  Q 8.61 90.61 8.84 91.00
  L 9.60 92.29
  Q 10.19 93.29 10.61 92.21
  Z"
/>
<path fill="#ea6b34" d="
  M 121.45 71.01
  Q 122.27 71.62 121.29 71.90
  Q 116.99 73.15 116.10 77.59
  A 0.99 0.99 0.0 0 1 114.30 77.95
  Q 109.37 70.65 101.50 66.57
  Q 101.01 66.31 100.76 65.82
  Q 98.73 61.83 94.46 60.21
  Q 93.91 60.01 93.63 59.51
  Q 92.32 57.17 89.84 56.04
  Q 89.39 55.83 89.20 55.37
  Q 87.65 51.64 83.90 50.40
  Q 83.40 50.24 83.14 49.78
  C 81.05 46.07 76.30 45.67 73.31 43.24
  Q 72.88 42.90 73.24 42.48
  Q 75.22 40.18 78.10 39.31
  Q 78.68 39.13 79.17 39.50
  L 121.45 71.01
  Z"
/>
<path fill="#fec276" d="
  M 80.00 81.29
  L 60.55 80.52
  A 2.13 2.12 -85.6 0 0 58.36 82.41
  C 58.11 84.65 58.66 90.80 55.75 91.06
  A 1.43 1.43 0.0 0 1 54.20 89.48
  C 54.42 87.42 55.60 83.08 52.06 83.30
  Q 51.52 83.34 51.26 83.81
  L 50.09 85.97
  Q 49.79 86.53 49.41 86.02
  Q 48.41 84.71 48.50 82.96
  Q 48.33 80.65 45.49 81.03
  Q 31.51 82.87 18.31 87.84
  A 0.32 0.31 10.1 0 1 17.96 87.34
  C 21.54 83.15 23.56 70.29 13.51 74.79
  Q 12.22 75.37 13.02 74.21
  Q 13.87 72.97 15.18 72.28
  Q 15.62 72.05 16.03 72.32
  C 18.77 74.14 20.27 71.38 21.19 69.39
  Q 21.41 68.91 21.92 69.04
  C 26.50 70.22 31.61 64.86 27.11 63.88
  Q 26.13 63.67 26.96 63.11
  L 28.40 62.12
  Q 28.86 61.80 29.32 62.14
  Q 36.64 67.55 44.79 62.72
  Q 47.26 61.26 45.44 58.96
  Q 44.70 58.03 45.81 58.45
  Q 48.12 59.33 50.01 57.68
  Q 50.43 57.31 50.04 56.91
  L 48.77 55.65
  Q 48.01 54.89 49.08 54.98
  Q 49.83 55.05 50.44 55.47
  Q 50.80 55.71 51.22 55.69
  C 53.50 55.59 65.16 52.89 56.31 49.78
  Q 54.97 49.31 56.33 48.89
  L 71.94 44.05
  Q 72.40 43.90 72.80 44.19
  L 75.72 46.27
  Q 76.13 46.57 76.64 46.65
  Q 80.55 47.25 82.49 50.60
  Q 82.79 51.12 83.36 51.30
  Q 86.88 52.41 88.21 55.92
  Q 88.39 56.39 88.85 56.61
  Q 91.24 57.75 92.62 59.95
  Q 92.91 60.41 93.37 60.68
  L 97.58 63.20
  Q 98.05 63.49 98.29 63.98
  C 100.26 68.07 103.47 68.42 106.19 70.79
  Q 111.03 75.00 114.96 80.08
  C 115.69 81.03 115.62 81.75 115.47 82.85
  Q 115.38 83.48 114.83 83.15
  C 112.04 81.49 111.79 85.27 111.23 86.79
  Q 111.02 87.34 110.44 87.23
  L 110.10 87.16
  Q 109.50 87.04 109.50 86.43
  L 109.50 83.96
  A 2.18 2.17 0.5 0 0 107.36 81.79
  L 80.00 81.29
  Z
  M 76.9050 53.0952
  A 7.38 2.80 13.2 0 0 70.3594 48.6840
  A 7.38 2.80 13.2 0 0 62.5350 49.7248
  A 7.38 2.80 13.2 0 0 69.0806 54.1360
  A 7.38 2.80 13.2 0 0 76.9050 53.0952
  Z
  M 84.45 53.83
  L 80.66 52.15
  Q 80.10 51.90 79.63 52.30
  L 78.44 53.31
  Q 77.88 53.79 78.55 54.11
  C 80.15 54.89 83.69 57.31 84.77 54.61
  A 0.61 0.60 23.1 0 0 84.45 53.83
  Z
  M 52.25 57.00
  L 51.82 57.23
  Q 51.52 57.39 51.40 57.70
  C 49.65 62.02 56.02 62.03 58.48 61.17
  Q 58.95 61.00 59.10 60.53
  C 60.52 56.20 55.48 56.41 53.04 56.30
  Q 52.48 56.27 52.25 57.00
  Z
  M 65.93 64.23
  L 64.23 64.26
  A 1.05 1.05 0.0 0 0 63.28 65.72
  Q 65.06 69.93 69.21 69.46
  Q 70.70 69.28 70.40 67.58
  Q 70.31 67.05 70.00 66.62
  L 68.57 64.64
  Q 68.22 64.16 68.82 64.20
  L 74.30 64.60
  A 1.80 1.80 0.0 0 0 76.17 62.34
  C 74.53 56.17 64.46 53.79 60.66 58.86
  Q 60.27 59.38 60.58 59.95
  Q 62.18 62.89 65.56 63.14
  Q 65.78 63.16 65.94 63.32
  L 66.19 63.57
  Q 66.83 64.21 65.93 64.23
  Z
  M 83.6134 60.9338
  A 0.74 0.74 0.0 0 0 83.2640 59.9473
  L 78.8775 57.8550
  A 0.74 0.74 0.0 0 0 77.8910 58.2044
  L 76.9266 60.2262
  A 0.74 0.74 0.0 0 0 77.2760 61.2127
  L 81.6625 63.3050
  A 0.74 0.74 0.0 0 0 82.6490 62.9556
  L 83.6134 60.9338
  Z
  M 53.00 71.46
  Q 54.06 71.22 54.25 71.96
  Q 52.37 73.51 53.06 75.41
  C 56.69 85.45 70.23 74.29 58.44 71.16
  Q 57.68 70.95 58.41 70.66
  L 61.16 69.58
  A 1.88 1.87 66.7 0 0 62.17 67.03
  C 59.56 61.49 50.32 61.61 45.99 65.69
  A 2.26 2.25 50.7 0 0 45.70 68.63
  Q 48.21 72.17 53.00 71.46
  Z
  M 98.7820 71.1366
  A 8.29 3.65 17.6 0 0 91.9837 65.1509
  A 8.29 3.65 17.6 0 0 82.9780 66.1234
  A 8.29 3.65 17.6 0 0 89.7763 72.1091
  A 8.29 3.65 17.6 0 0 98.7820 71.1366
  Z
  M 41.25 76.46
  L 41.96 76.25
  Q 43.94 77.08 46.42 76.19
  A 0.96 0.96 0.0 0 0 46.74 74.58
  C 45.90 73.81 43.17 72.13 42.46 74.00
  L 41.54 74.00
  C 40.61 64.37 19.93 69.93 25.13 77.99
  C 27.86 82.23 39.22 80.53 41.25 76.46
  Z
  M 85.13 76.03
  C 82.75 70.76 70.01 65.87 68.02 74.70
  A 1.59 1.59 0.0 0 0 69.28 76.61
  Q 76.87 78.00 84.53 77.09
  A 0.76 0.75 74.6 0 0 85.13 76.03
  Z
  M 109.8759 78.0124
  A 4.49 2.93 28.5 0 0 107.3281 73.2951
  A 4.49 2.93 28.5 0 0 101.9841 73.7276
  A 4.49 2.93 28.5 0 0 104.5319 78.4449
  A 4.49 2.93 28.5 0 0 109.8759 78.0124
  Z
  M 99.71 76.94
  C 99.45 74.05 96.79 73.21 94.26 74.02
  Q 93.72 74.19 93.87 74.74
  Q 94.88 78.59 99.27 77.55
  Q 99.75 77.44 99.71 76.94
  Z"
/>
<path fill="#010101" d="
  M 76.9050 53.0952
  A 7.38 2.80 13.2 0 1 69.0806 54.1360
  A 7.38 2.80 13.2 0 1 62.5350 49.7248
  A 7.38 2.80 13.2 0 1 70.3594 48.6840
  A 7.38 2.80 13.2 0 1 76.9050 53.0952
  Z
  M 75.8067 52.8112
  A 6.18 1.59 13.2 0 0 70.1531 49.8520
  A 6.18 1.59 13.2 0 0 63.7733 49.9888
  A 6.18 1.59 13.2 0 0 69.4269 52.9480
  A 6.18 1.59 13.2 0 0 75.8067 52.8112
  Z"
/>
<ellipse fill="#ea6b34" cx="0.00" cy="0.00" transform="translate(69.79,51.40) rotate(13.2)" rx="6.18" ry="1.59"/>
<path fill="#ea6b34" d="
  M 57.64 51.63
  A 0.89 0.88 47.0 0 1 57.59 53.20
  Q 52.28 55.70 46.85 53.48
  A 0.58 0.58 0.0 0 1 46.84 52.41
  C 51.03 50.60 53.34 49.19 57.64 51.63
  Z"
/>
<path fill="#010101" d="
  M 84.45 53.83
  A 0.61 0.60 23.1 0 1 84.77 54.61
  C 83.69 57.31 80.15 54.89 78.55 54.11
  Q 77.88 53.79 78.44 53.31
  L 79.63 52.30
  Q 80.10 51.90 80.66 52.15
  L 84.45 53.83
  Z
  M 83.6214 54.9242
  A 0.61 0.61 0.0 0 0 83.3249 54.1141
  L 80.4224 52.7668
  A 0.61 0.61 0.0 0 0 79.6123 53.0632
  L 79.5786 53.1358
  A 0.61 0.61 0.0 0 0 79.8751 53.9459
  L 82.7776 55.2932
  A 0.61 0.61 0.0 0 0 83.5877 54.9968
  L 83.6214 54.9242
  Z"
/>
<rect fill="#fec276" x="-2.21" y="-0.65" transform="translate(81.60,54.03) rotate(24.9)" width="4.42" height="1.30" rx="0.61"/>
<path fill="#fec276" d="
  M 38.64 56.21
  C 39.93 55.30 45.13 52.43 46.41 54.30
  A 0.48 0.47 72.2 0 1 46.03 55.05
  Q 43.88 55.08 43.03 56.91
  Q 42.79 57.41 42.24 57.31
  L 38.73 56.66
  Q 38.15 56.55 38.64 56.21
  Z"
/>
<path fill="#fec276" d="
  M 48.43 56.51
  A 0.77 0.77 0.0 0 1 48.04 57.90
  Q 46.16 58.04 44.38 57.33
  Q 43.65 57.04 44.27 56.55
  Q 46.29 54.95 48.43 56.51
  Z"
/>
<path fill="#1f211f" d="
  M 52.25 57.00
  Q 53.56 57.78 54.16 59.10
  Q 54.26 59.33 54.02 59.41
  Q 53.87 59.46 53.72 59.51
  Q 53.32 59.64 53.20 59.24
  L 52.91 58.32
  Q 52.76 57.85 52.32 58.09
  L 51.91 58.31
  Q 51.07 58.75 51.76 59.39
  L 53.45 60.96
  Q 53.97 61.45 54.57 61.07
  Q 55.48 60.49 56.46 60.75
  C 58.49 61.27 59.80 58.98 57.75 57.96
  L 57.20 57.50
  Q 56.81 57.19 56.32 57.17
  L 52.25 57.00
  Q 52.48 56.27 53.04 56.30
  C 55.48 56.41 60.52 56.20 59.10 60.53
  Q 58.95 61.00 58.48 61.17
  C 56.02 62.03 49.65 62.02 51.40 57.70
  Q 51.52 57.39 51.82 57.23
  L 52.25 57.00
  Z"
/>
<path fill="#010101" d="
  M 66.19 63.57
  L 65.94 63.32
  Q 65.78 63.16 65.56 63.14
  Q 62.18 62.89 60.58 59.95
  Q 60.27 59.38 60.66 58.86
  C 64.46 53.79 74.53 56.17 76.17 62.34
  A 1.80 1.80 0.0 0 1 74.30 64.60
  L 68.82 64.20
  Q 68.22 64.16 68.57 64.64
  L 70.00 66.62
  Q 70.31 67.05 70.40 67.58
  Q 70.70 69.28 69.21 69.46
  Q 65.06 69.93 63.28 65.72
  A 1.05 1.05 0.0 0 1 64.23 64.26
  L 65.93 64.23
  Q 66.83 64.21 66.19 63.57
  Z
  M 74.98 62.77
  C 74.98 57.47 64.02 55.49 61.83 59.12
  A 1.15 1.15 0.0 0 0 62.28 60.74
  Q 67.91 63.70 74.39 63.40
  Q 74.98 63.37 74.98 62.77
  Z
  M 64.25 65.96
  C 65.24 67.79 66.59 68.84 68.79 68.49
  A 0.76 0.76 0.0 0 0 69.40 67.53
  Q 68.30 63.53 64.54 65.12
  Q 63.93 65.37 64.25 65.96
  Z"
/>
<path fill="#97876a" d="
  M 52.25 57.00
  L 56.32 57.17
  Q 56.81 57.19 57.20 57.50
  L 57.75 57.96
  Q 56.69 58.22 56.79 59.50
  L 56.75 58.60
  Q 56.71 57.91 56.22 58.40
  Q 55.43 59.19 56.25 60.04
  L 56.46 60.75
  Q 55.48 60.49 54.57 61.07
  Q 53.97 61.45 53.45 60.96
  L 51.76 59.39
  Q 51.07 58.75 51.91 58.31
  L 52.32 58.09
  Q 52.76 57.85 52.91 58.32
  L 53.20 59.24
  Q 53.32 59.64 53.72 59.51
  Q 53.87 59.46 54.02 59.41
  Q 54.26 59.33 54.16 59.10
  Q 53.56 57.78 52.25 57.00
  Z"
/>
<path fill="#ea6b34" d="
  M 61.83 59.12
  C 64.02 55.49 74.98 57.47 74.98 62.77
  Q 74.98 63.37 74.39 63.40
  Q 67.91 63.70 62.28 60.74
  A 1.15 1.15 0.0 0 1 61.83 59.12
  Z"
/>
<path fill="#ea6b34" d="
  M 31.28 62.40
  A 1.02 1.01 33.5 0 1 30.96 60.83
  C 34.16 57.09 41.44 56.18 45.18 60.35
  Q 45.67 60.89 45.06 61.30
  Q 38.37 65.86 31.28 62.40
  Z"
/>
<path fill="#010101" d="
  M 56.79 59.50
  L 56.25 60.04
  Q 55.43 59.19 56.22 58.40
  Q 56.71 57.91 56.75 58.60
  L 56.79 59.50
  Z"
/>
<path fill="#fec276" d="
  M 57.75 57.96
  C 59.80 58.98 58.49 61.27 56.46 60.75
  L 56.25 60.04
  L 56.79 59.50
  Q 56.69 58.22 57.75 57.96
  Z"
/>
<path fill="#010101" d="
  M 82.6490 62.9556
  A 0.74 0.74 0.0 0 1 81.6625 63.3050
  L 77.2760 61.2127
  A 0.74 0.74 0.0 0 1 76.9266 60.2262
  L 77.8910 58.2044
  A 0.74 0.74 0.0 0 1 78.8775 57.8550
  L 83.2640 59.9473
  A 0.74 0.74 0.0 0 1 83.6134 60.9338
  L 82.6490 62.9556
  Z
  M 82.6444 61.3262
  A 0.74 0.74 0.0 0 0 82.2865 60.3428
  L 79.1325 58.8721
  A 0.74 0.74 0.0 0 0 78.1491 59.2300
  L 77.8956 59.7738
  A 0.74 0.74 0.0 0 0 78.2535 60.7572
  L 81.4075 62.2279
  A 0.74 0.74 0.0 0 0 82.3909 61.8700
  L 82.6444 61.3262
  Z"
/>
<rect fill="#fec276" x="-2.48" y="-1.04" transform="translate(80.27,60.55) rotate(25.0)" width="4.96" height="2.08" rx="0.74"/>
<path fill="#010101" d="
  M 54.25 71.96
  L 55.50 72.04
  L 54.09 73.33
  Q 53.72 73.66 53.76 74.16
  C 54.07 77.98 58.61 79.88 61.38 77.30
  C 64.80 74.11 58.81 71.59 56.50 71.54
  Q 54.74 71.01 53.00 71.46
  Q 48.21 72.17 45.70 68.63
  A 2.26 2.25 50.7 0 1 45.99 65.69
  C 50.32 61.61 59.56 61.49 62.17 67.03
  A 1.88 1.87 66.7 0 1 61.16 69.58
  L 58.41 70.66
  Q 57.68 70.95 58.44 71.16
  C 70.23 74.29 56.69 85.45 53.06 75.41
  Q 52.37 73.51 54.25 71.96
  Z
  M 61.20 67.80
  C 59.81 62.82 51.20 63.56 47.73 65.18
  A 2.08 2.07 61.8 0 0 46.84 68.13
  C 49.06 71.78 57.22 70.36 60.84 68.59
  Q 61.35 68.35 61.20 67.80
  Z"
/>
<path fill="#ea6b34" d="
  M 47.73 65.18
  C 51.20 63.56 59.81 62.82 61.20 67.80
  Q 61.35 68.35 60.84 68.59
  C 57.22 70.36 49.06 71.78 46.84 68.13
  A 2.08 2.07 61.8 0 1 47.73 65.18
  Z"
/>
<path fill="#fec276" d="
  M 21.50 68.21
  L 21.21 67.75
  L 22.75 66.71
  L 24.00 66.96
  Q 25.44 67.13 26.05 65.94
  Q 26.33 65.40 25.82 65.07
  L 25.51 64.87
  Q 25.36 64.77 25.47 64.62
  L 25.85 64.15
  Q 26.21 63.70 26.65 64.07
  L 27.90 65.15
  Q 28.36 65.54 28.02 66.04
  Q 25.78 69.42 21.50 68.21
  Z"
/>
<path fill="#010101" d="
  M 98.7820 71.1366
  A 8.29 3.65 17.6 0 1 89.7763 72.1091
  A 8.29 3.65 17.6 0 1 82.9780 66.1234
  A 8.29 3.65 17.6 0 1 91.9837 65.1509
  A 8.29 3.65 17.6 0 1 98.7820 71.1366
  Z
  M 97.6083 70.7423
  A 7.03 2.52 17.4 0 0 91.6536 66.2353
  A 7.03 2.52 17.4 0 0 84.1917 66.5377
  A 7.03 2.52 17.4 0 0 90.1464 71.0447
  A 7.03 2.52 17.4 0 0 97.6083 70.7423
  Z"
/>
<path fill="#fec276" d="
  M 68.79 68.49
  C 66.59 68.84 65.24 67.79 64.25 65.96
  Q 63.93 65.37 64.54 65.12
  Q 68.30 63.53 69.40 67.53
  A 0.76 0.76 0.0 0 1 68.79 68.49
  Z"
/>
<path fill="#97876a" d="
  M 24.00 66.96
  L 22.75 66.71
  Q 23.11 65.04 24.70 65.00
  Q 25.31 64.98 25.07 65.55
  Q 24.73 66.36 24.00 66.96
  Z"
/>
<ellipse fill="#ea6b34" cx="0.00" cy="0.00" transform="translate(90.90,68.64) rotate(17.4)" rx="7.03" ry="2.52"/>
<path fill="#1f211f" d="
  M 21.21 67.75
  L 21.50 68.21
  L 20.29 69.25
  L 20.00 68.71
  L 21.21 67.75
  Z"
/>
<path fill="#fec276" d="
  M 20.00 68.71
  L 20.29 69.25
  C 19.82 70.90 18.32 72.90 16.34 71.78
  Q 15.82 71.48 16.25 71.06
  Q 17.86 69.47 20.00 68.71
  Z"
/>
<path fill="#010101" d="
  M 41.54 74.00
  L 41.25 76.46
  C 39.22 80.53 27.86 82.23 25.13 77.99
  C 19.93 69.93 40.61 64.37 41.54 74.00
  Z
  M 40.36 75.43
  C 43.17 68.88 26.75 67.91 25.76 75.07
  C 24.86 81.63 38.64 79.45 40.36 75.43
  Z"
/>
<path fill="#010101" d="
  M 68.02 74.70
  C 70.01 65.87 82.75 70.76 85.13 76.03
  A 0.76 0.75 74.6 0 1 84.53 77.09
  Q 76.87 78.00 69.28 76.61
  A 1.59 1.59 0.0 0 1 68.02 74.70
  Z
  M 82.80 74.59
  C 78.78 71.63 71.75 67.99 69.13 74.52
  A 0.59 0.58 -73.2 0 0 69.55 75.31
  Q 75.87 76.59 82.35 76.14
  Q 84.68 75.98 82.80 74.59
  Z"
/>
<path fill="#ea6b34" d="
  M 25.76 75.07
  C 26.75 67.91 43.17 68.88 40.36 75.43
  C 38.64 79.45 24.86 81.63 25.76 75.07
  Z"
/>
<path fill="#ea6b34" d="
  M 82.80 74.59
  Q 84.68 75.98 82.35 76.14
  Q 75.87 76.59 69.55 75.31
  A 0.59 0.58 -73.2 0 1 69.13 74.52
  C 71.75 67.99 78.78 71.63 82.80 74.59
  Z"
/>
<path fill="#1f211f" d="
  M 56.50 71.54
  L 55.50 72.04
  L 54.25 71.96
  Q 54.06 71.22 53.00 71.46
  Q 54.74 71.01 56.50 71.54
  Z"
/>
<path fill="#fec276" d="
  M 56.50 71.54
  C 58.81 71.59 64.80 74.11 61.38 77.30
  C 58.61 79.88 54.07 77.98 53.76 74.16
  Q 53.72 73.66 54.09 73.33
  L 55.50 72.04
  L 56.50 71.54
  Z
  M 60.7680 75.6203
  A 2.73 2.06 11.2 0 0 58.4901 73.0692
  A 2.73 2.06 11.2 0 0 55.4120 74.5597
  A 2.73 2.06 11.2 0 0 57.6899 77.1108
  A 2.73 2.06 11.2 0 0 60.7680 75.6203
  Z"
/>
<path fill="#1f211f" d="
  M 109.8759 78.0124
  A 4.49 2.93 28.5 0 1 104.5319 78.4449
  A 4.49 2.93 28.5 0 1 101.9841 73.7276
  A 4.49 2.93 28.5 0 1 107.3281 73.2951
  A 4.49 2.93 28.5 0 1 109.8759 78.0124
  Z
  M 105.21 77.75
  Q 106.73 78.29 108.32 78.19
  Q 108.86 78.15 109.07 77.65
  Q 109.53 76.58 108.50 75.71
  C 108.04 73.75 105.81 74.20 104.95 75.23
  Q 104.49 75.78 105.19 75.93
  Q 106.11 76.12 106.00 76.96
  L 105.29 77.25
  Q 104.24 76.13 104.22 74.69
  Q 104.21 74.35 104.54 74.27
  L 105.51 74.05
  A 0.70 0.59 27.7 0 0 105.02 72.85
  C 100.44 73.80 102.46 76.76 105.21 77.75
  Z"
/>
<ellipse fill="#ea6b34" cx="0.00" cy="0.00" transform="translate(121.63,78.95) rotate(105.4)" rx="6.32" ry="4.78"/>
<path fill="#1f211f" d="
  M 41.96 76.25
  L 42.46 74.00
  C 43.17 72.13 45.90 73.81 46.74 74.58
  A 0.96 0.96 0.0 0 1 46.42 76.19
  Q 43.94 77.08 41.96 76.25
  Z
  M 45.96 74.90
  Q 44.43 73.18 42.78 74.47
  Q 42.04 75.04 42.88 75.45
  Q 44.26 76.11 45.77 75.60
  A 0.44 0.44 0.0 0 0 45.96 74.90
  Z"
/>
<path fill="#010101" d="
  M 60.7680 75.6203
  A 2.73 2.06 11.2 0 1 57.6899 77.1108
  A 2.73 2.06 11.2 0 1 55.4120 74.5597
  A 2.73 2.06 11.2 0 1 58.4901 73.0692
  A 2.73 2.06 11.2 0 1 60.7680 75.6203
  Z
  M 59.7032 75.5046
  A 1.10 1.10 0.0 0 0 59.0581 74.0890
  L 57.9154 73.6617
  A 1.10 1.10 0.0 0 0 56.4998 74.3068
  L 56.4368 74.4754
  A 1.10 1.10 0.0 0 0 57.0819 75.8910
  L 58.2246 76.3183
  A 1.10 1.10 0.0 0 0 59.6402 75.6732
  L 59.7032 75.5046
  Z"
/>
<path fill="#97876a" d="
  M 105.29 77.25
  L 105.21 77.75
  C 102.46 76.76 100.44 73.80 105.02 72.85
  A 0.70 0.59 27.7 0 1 105.51 74.05
  L 104.54 74.27
  Q 104.21 74.35 104.22 74.69
  Q 104.24 76.13 105.29 77.25
  Z"
/>
<path fill="#fec276" d="
  M 45.96 74.90
  A 0.44 0.44 0.0 0 1 45.77 75.60
  Q 44.26 76.11 42.88 75.45
  Q 42.04 75.04 42.78 74.47
  Q 44.43 73.18 45.96 74.90
  Z"
/>
<rect fill="#fec276" x="-1.71" y="-1.19" transform="translate(58.07,74.99) rotate(20.5)" width="3.42" height="2.38" rx="1.10"/>
<path fill="#010101" d="
  M 94.26 74.02
  C 96.79 73.21 99.45 74.05 99.71 76.94
  Q 99.75 77.44 99.27 77.55
  Q 94.88 78.59 93.87 74.74
  Q 93.72 74.19 94.26 74.02
  Z
  M 98.4813 76.0447
  A 0.83 0.83 0.0 0 0 97.9033 75.0230
  L 96.0338 74.5046
  A 0.83 0.83 0.0 0 0 95.0122 75.0826
  L 94.9587 75.2753
  A 0.83 0.83 0.0 0 0 95.5367 76.2970
  L 97.4062 76.8154
  A 0.83 0.83 0.0 0 0 98.4278 76.2374
  L 98.4813 76.0447
  Z"
/>
<path fill="#97876a" d="
  M 41.54 74.00
  L 42.46 74.00
  L 41.96 76.25
  L 41.25 76.46
  L 41.54 74.00
  Z"
/>
<path fill="#97876a" d="
  M 108.50 75.71
  L 108.04 76.00
  L 107.83 75.73
  Q 107.62 75.44 107.29 75.58
  Q 106.45 75.94 106.75 76.96
  L 106.00 76.96
  Q 106.11 76.12 105.19 75.93
  Q 104.49 75.78 104.95 75.23
  C 105.81 74.20 108.04 73.75 108.50 75.71
  Z"
/>
<rect fill="#fec276" x="-1.80" y="-0.93" transform="translate(96.72,75.66) rotate(15.5)" width="3.60" height="1.86" rx="0.83"/>
<path fill="#1f211f" d="
  M 127.25 74.96
  L 128.00 75.56
  L 128.00 80.56
  L 127.04 81.50
  L 127.25 74.96
  Z"
/>
<path fill="#ea6b34" d="
  M 13.55 87.71
  C 4.27 87.14 8.65 73.07 18.64 75.58
  Q 19.16 75.71 19.32 76.23
  C 20.56 80.43 19.34 88.07 13.55 87.71
  Z"
/>
<path fill="#010101" d="
  M 108.04 76.00
  L 107.79 76.78
  Q 107.68 77.13 107.32 77.06
  L 106.75 76.96
  Q 106.45 75.94 107.29 75.58
  Q 107.62 75.44 107.83 75.73
  L 108.04 76.00
  Z"
/>
<path fill="#fec276" d="
  M 108.50 75.71
  Q 109.53 76.58 109.07 77.65
  Q 108.86 78.15 108.32 78.19
  Q 106.73 78.29 105.21 77.75
  L 105.29 77.25
  L 106.00 76.96
  L 106.75 76.96
  L 107.32 77.06
  Q 107.68 77.13 107.79 76.78
  L 108.04 76.00
  L 108.50 75.71
  Z"
/>
<path fill="#1f211f" d="
  M 80.00 81.29
  L 80.00 82.96
  L 60.67 81.89
  Q 60.11 81.86 60.08 82.42
  C 59.84 86.66 60.22 91.46 56.23 92.88
  Q 55.77 93.05 55.32 92.88
  C 51.50 91.47 53.44 88.74 52.75 86.04
  Q 53.23 85.67 53.21 85.05
  A 0.46 0.46 0.0 0 0 52.44 84.71
  Q 51.44 85.59 51.29 86.75
  C 49.06 90.46 46.92 85.67 47.02 83.32
  Q 47.04 82.71 46.43 82.76
  L 43.50 82.96
  Q 45.95 81.41 48.50 82.96
  Q 48.41 84.71 49.41 86.02
  Q 49.79 86.53 50.09 85.97
  L 51.26 83.81
  Q 51.52 83.34 52.06 83.30
  C 55.60 83.08 54.42 87.42 54.20 89.48
  A 1.43 1.43 0.0 0 0 55.75 91.06
  C 58.66 90.80 58.11 84.65 58.36 82.41
  A 2.13 2.12 -85.6 0 1 60.55 80.52
  L 80.00 81.29
  Z"
/>
<path fill="#fec276" d="
  M 9.60 92.29
  L 8.84 91.00
  Q 8.61 90.61 8.18 90.69
  Q 5.78 91.11 6.03 93.78
  Q 6.08 94.36 5.58 94.06
  L 5.20 93.84
  Q 4.88 93.65 4.95 93.28
  Q 5.40 90.78 2.98 90.72
  A 1.34 1.34 0.0 0 1 1.92 88.60
  L 6.44 82.28
  Q 7.03 81.45 7.15 82.46
  Q 7.81 88.01 13.39 88.66
  A 0.37 0.37 0.0 0 1 13.48 89.38
  Q 11.43 90.16 10.61 92.21
  Q 10.19 93.29 9.60 92.29
  Z"
/>
<path fill="#1f211f" d="
  M 41.00 83.29
  L 37.29 84.00
  Q 38.95 82.76 41.00 83.29
  Z"
/>
<path fill="#1f211f" d="
  M 105.78 83.93
  Q 95.09 84.15 84.50 83.21
  Q 95.17 82.73 105.78 83.93
  Z"
/>
<path fill="#97876a" d="
  M 52.75 86.04
  L 51.29 86.75
  Q 51.44 85.59 52.44 84.71
  A 0.46 0.46 0.0 0 1 53.21 85.05
  Q 53.23 85.67 52.75 86.04
  Z"
/>
<path fill="#1f211f" d="
  M 119.00 85.96
  L 115.50 85.46
  Q 117.39 84.48 119.00 85.96
  Z"
/>
<path fill="#1f211f" d="
  M 113.25 85.29
  Q 113.07 86.86 112.04 88.00
  Q 111.48 85.98 113.25 85.29
  Z"
/>
<path fill="#1f211f" d="
  M 0.75 87.96
  L 1.03 91.02
  Q 1.08 91.49 1.53 91.64
  L 3.32 92.24
  Q 3.79 92.39 3.76 92.88
  Q 3.75 93.12 3.50 93.29
  Q 1.39 92.43 0.00 90.69
  L 0.00 88.44
  L 0.75 87.96
  Z"
/>
<path fill="#97876a" d="
  M 8.50 93.96
  L 7.50 94.04
  Q 6.49 93.31 7.34 92.46
  A 0.61 0.60 -48.4 0 1 8.14 92.41
  Q 9.05 93.12 8.50 93.96
  Z"
/>
<path fill="#1f211f" d="
  M 6.71 95.00
  C 6.45 96.09 4.56 96.46 4.25 95.29
  L 6.71 95.00
  Z"
/>
</svg>
