<?xml version="1.0" encoding="UTF-8" standalone="no"?>
<!DOCTYPE svg PUBLIC "-//W3C//DTD SVG 1.1//EN" "http://www.w3.org/Graphics/SVG/1.1/DTD/svg11.dtd">
<svg xmlns="http://www.w3.org/2000/svg" version="1.1" viewBox="0.00 0.00 512.00 512.00">
<g stroke-width="2.00" fill="none" stroke-linecap="butt">
<path stroke="#a48fac" vector-effect="non-scaling-stroke" d="
  M 249.36 36.74
  C 200.73 39.88 163.10 75.17 153.53 122.49"
/>
<path stroke="#a088a6" vector-effect="non-scaling-stroke" d="
  M 153.53 122.49
  L 152.82 128.34"
/>
<path stroke="#a48fac" vector-effect="non-scaling-stroke" d="
  M 152.82 128.34
  L 151.89 141.08"
/>
<path stroke="#9c3a57" vector-effect="non-scaling-stroke" d="
  M 151.89 141.08
  Q 147.32 142.18 142.06 141.69"
/>
<path stroke="#9d4662" vector-effect="non-scaling-stroke" d="
  M 142.06 141.69
  L 137.73 141.75
  A 0.49 0.49 0.0 0 0 137.25 142.24
  L 137.25 200.25
  Q 137.25 200.73 137.73 200.73
  L 142.06 200.75"
/>
<path stroke="#9c3a57" vector-effect="non-scaling-stroke" d="
  M 142.06 200.75
  L 368.88 200.75"
/>
<path stroke="#9d4662" vector-effect="non-scaling-stroke" d="
  M 368.88 200.75
  L 374.27 200.73
  Q 374.75 200.73 374.75 200.25
  L 374.75 142.25
  Q 374.75 141.77 374.27 141.77
  L 368.83 141.78"
/>
<path stroke="#9c3a57" vector-effect="non-scaling-stroke" d="
  M 368.83 141.78
  L 360.15 141.55"
/>
<path stroke="#957b98" vector-effect="non-scaling-stroke" d="
  M 360.15 141.55
  C 359.19 86.90 320.23 42.93 265.79 36.91"
/>
<path stroke="#a088a6" vector-effect="non-scaling-stroke" d="
  M 265.79 36.91
  L 249.36 36.74"
/>
<path stroke="#ebe4e5" vector-effect="non-scaling-stroke" d="
  M 265.79 36.91
  L 266.36 38.01
  Q 266.56 38.40 266.94 38.61
  Q 291.75 52.04 308.29 74.98
  Q 310.20 77.64 308.12 77.32"
/>
<path stroke="#a088a6" vector-effect="non-scaling-stroke" d="
  M 308.12 77.32
  C 286.35 78.79 266.26 97.24 268.38 120.32
  Q 268.43 120.80 268.06 121.10
  L 257.16 129.93
  A 0.70 0.70 0.0 0 1 256.30 129.94
  L 246.03 121.98
  A 0.61 0.61 0.0 0 1 245.88 121.19
  C 251.56 111.45 251.57 100.55 242.37 93.13
  Q 228.52 81.96 214.69 70.81
  Q 212.93 69.40 209.63 69.16"
/>
<path stroke="#fbf8f9" vector-effect="non-scaling-stroke" d="
  M 209.63 69.16
  Q 210.59 67.48 213.23 64.74
  C 222.62 54.98 231.93 46.51 243.82 40.46
  Q 246.80 38.94 249.36 36.74"
/>
<path stroke="#a48fac" vector-effect="non-scaling-stroke" d="
  M 209.63 69.16
  Q 200.51 70.76 202.65 80.74"
/>
<path stroke="#fbf8f9" vector-effect="non-scaling-stroke" d="
  M 202.65 80.74
  Q 200.42 81.20 200.56 84.86"
/>
<path stroke="#a48fac" vector-effect="non-scaling-stroke" d="
  M 200.56 84.86
  Q 192.15 84.51 189.25 90.75"
/>
<path stroke="#fbf8f9" vector-effect="non-scaling-stroke" d="
  M 189.25 90.75
  Q 186.57 90.90 185.47 91.96
  Q 177.04 100.12 155.28 122.28
  Q 154.47 123.11 153.53 122.49"
/>
<path stroke="#e89696" vector-effect="non-scaling-stroke" d="
  M 360.15 141.55
  Q 360.63 154.41 360.58 167.37
  C 360.50 185.37 352.78 190.11 335.27 189.12"
/>
<path stroke="#ebe4e5" vector-effect="non-scaling-stroke" d="
  M 335.27 189.12
  Q 338.59 152.03 328.32 115.65"
/>
<path stroke="#957b98" vector-effect="non-scaling-stroke" d="
  M 328.32 115.65
  Q 332.57 107.57 332.53 99.51
  C 332.45 85.58 321.45 77.36 308.12 77.32"
/>
<path stroke="#a088a6" vector-effect="non-scaling-stroke" d="
  M 328.32 115.65
  C 318.69 131.56 300.69 142.36 282.04 136.74
  Q 281.49 136.58 281.04 136.94
  L 273.81 142.82
  Q 273.33 143.21 273.82 143.58
  Q 282.57 150.37 291.27 157.23
  C 295.33 160.42 295.59 166.48 292.71 170.65
  C 288.34 176.98 281.82 175.51 276.45 171.28
  Q 267.02 163.86 257.58 156.55
  A 0.51 0.51 0.0 0 0 256.95 156.56
  Q 246.03 165.40 235.33 173.79
  C 225.24 181.70 213.02 168.16 221.41 159.20
  C 226.57 153.69 234.16 148.56 240.17 143.76
  Q 240.71 143.33 240.17 142.91
  L 233.60 137.85
  A 0.66 0.65 41.4 0 0 232.75 137.90
  Q 221.92 148.23 209.46 143.47
  Q 205.60 142.00 199.38 136.88
  Q 191.61 130.49 183.79 124.28"
/>
<path stroke="#a48fac" vector-effect="non-scaling-stroke" d="
  M 183.79 124.28
  C 178.82 120.41 173.22 116.97 173.72 110.82"
/>
<path stroke="#a088a6" vector-effect="non-scaling-stroke" d="
  M 173.72 110.82
  C 176.57 102.53 183.03 102.60 188.86 107.33
  Q 198.46 115.13 208.08 122.92
  C 210.67 125.01 215.42 127.45 217.57 123.90
  Q 218.11 123.01 217.31 122.36
  Q 204.44 111.83 191.69 101.55
  Q 186.66 97.49 189.25 90.75"
/>
<path stroke="#a088a6" vector-effect="non-scaling-stroke" d="
  M 200.56 84.86
  L 229.08 107.63
  Q 229.59 108.03 229.79 107.42
  C 230.62 104.98 229.70 103.29 227.68 101.65
  Q 214.80 91.23 202.65 80.74"
/>
<path stroke="#fbf8f9" vector-effect="non-scaling-stroke" d="
  M 173.72 110.82
  Q 173.16 110.30 172.65 110.24
  Q 172.19 110.19 171.71 110.76
  C 168.53 114.52 165.11 117.50 161.41 121.40
  Q 157.57 125.45 152.82 128.34"
/>
<path stroke="#f3a3a4" vector-effect="non-scaling-stroke" d="
  M 335.27 189.12
  L 178.31 189.03"
/>
<path stroke="#f06161" vector-effect="non-scaling-stroke" d="
  M 368.83 141.78
  L 368.88 200.75"
/>
<path stroke="#f06161" vector-effect="non-scaling-stroke" d="
  M 142.06 200.75
  L 142.06 141.69"
/>
<path stroke="#fbf8f9" vector-effect="non-scaling-stroke" d="
  M 183.79 124.28
  Q 183.86 124.99 182.90 125.63
  Q 182.45 125.92 182.33 126.45
  Q 175.35 157.24 178.31 189.03"
/>
<path stroke="#f7aaaa" vector-effect="non-scaling-stroke" d="
  M 178.31 189.03
  C 167.81 188.99 157.68 189.65 153.13 178.30
  Q 151.92 175.28 151.97 170.02
  Q 152.11 155.46 151.89 141.08"
/>
<path stroke="#9c3a57" vector-effect="non-scaling-stroke" d="
  M 386.51 200.73
  L 395.53 200.73"
/>
<path stroke="#9d4662" vector-effect="non-scaling-stroke" d="
  M 395.53 200.73
  L 401.02 200.73
  Q 401.50 200.73 401.50 200.25
  L 401.50 142.47
  Q 401.50 141.80 400.83 141.80
  L 395.59 141.78"
/>
<path stroke="#9c3a57" vector-effect="non-scaling-stroke" d="
  M 395.59 141.78
  L 386.48 141.78"
/>
<path stroke="#9b314d" vector-effect="non-scaling-stroke" d="
  M 386.48 141.78
  L 381.07 141.66
  Q 380.50 141.65 380.50 142.22
  L 380.50 200.25
  Q 380.50 200.73 380.98 200.73
  L 386.51 200.73"
/>
<path stroke="#ee4c4c" vector-effect="non-scaling-stroke" d="
  M 386.48 141.78
  L 386.51 200.73"
/>
<path stroke="#f06161" vector-effect="non-scaling-stroke" d="
  M 395.59 141.78
  L 395.53 200.73"
/>
<path stroke="#9c3a57" vector-effect="non-scaling-stroke" d="
  M 413.35 200.78
  L 421.22 200.72"
/>
<path stroke="#9d4662" vector-effect="non-scaling-stroke" d="
  M 421.22 200.72
  L 426.82 200.67
  Q 427.25 200.67 427.25 200.24
  L 427.25 142.25
  Q 427.25 141.77 426.77 141.77
  L 421.15 141.77"
/>
<path stroke="#9c3a57" vector-effect="non-scaling-stroke" d="
  M 421.15 141.77
  L 413.27 141.77"
/>
<path stroke="#9b314d" vector-effect="non-scaling-stroke" d="
  M 413.27 141.77
  L 407.86 141.63
  Q 407.25 141.62 407.25 142.22
  L 407.25 200.24
  Q 407.25 200.73 407.74 200.73
  L 413.35 200.78"
/>
<path stroke="#ee4c4c" vector-effect="non-scaling-stroke" d="
  M 413.27 141.77
  L 413.35 200.78"
/>
<path stroke="#f06161" vector-effect="non-scaling-stroke" d="
  M 421.15 141.77
  L 421.22 200.72"
/>
<path stroke="#9c3a57" vector-effect="non-scaling-stroke" d="
  M 438.98 200.72
  L 444.66 200.72"
/>
<path stroke="#9d4662" vector-effect="non-scaling-stroke" d="
  M 444.66 200.72
  L 451.27 200.73
  Q 451.75 200.73 451.75 200.24
  L 451.75 142.25
  Q 451.75 141.77 451.27 141.77
  L 444.59 141.77"
/>
<path stroke="#9c3a57" vector-effect="non-scaling-stroke" d="
  M 444.59 141.77
  L 439.02 141.76"
/>
<path stroke="#9b314d" vector-effect="non-scaling-stroke" d="
  M 439.02 141.76
  L 433.51 141.67
  Q 432.98 141.66 432.98 142.19
  L 433.01 200.25
  Q 433.01 200.73 433.48 200.73
  L 438.98 200.72"
/>
<path stroke="#ee4c4c" vector-effect="non-scaling-stroke" d="
  M 439.02 141.76
  L 438.98 200.72"
/>
<path stroke="#f06161" vector-effect="non-scaling-stroke" d="
  M 444.59 141.77
  L 444.66 200.72"
/>
<path stroke="#9c3a57" vector-effect="non-scaling-stroke" d="
  M 463.61 200.72
  L 470.32 200.70"
/>
<path stroke="#9d4662" vector-effect="non-scaling-stroke" d="
  M 470.32 200.70
  L 476.90 200.66
  Q 477.50 200.65 477.50 200.05
  L 477.50 142.25
  Q 477.50 141.77 477.02 141.77
  L 470.27 141.77"
/>
<path stroke="#9c3a57" vector-effect="non-scaling-stroke" d="
  M 470.27 141.77
  L 463.53 141.76"
/>
<path stroke="#9b314d" vector-effect="non-scaling-stroke" d="
  M 463.53 141.76
  L 458.11 141.69
  A 0.62 0.61 -89.5 0 0 457.49 142.31
  L 457.51 200.25
  Q 457.51 200.73 457.98 200.73
  L 463.61 200.72"
/>
<path stroke="#ee4c4c" vector-effect="non-scaling-stroke" d="
  M 463.53 141.76
  L 463.61 200.72"
/>
<path stroke="#f06161" vector-effect="non-scaling-stroke" d="
  M 470.27 141.77
  L 470.32 200.70"
/>
<path stroke="#9c3a57" vector-effect="non-scaling-stroke" d="
  M 489.23 200.87
  C 501.62 199.75 505.02 191.71 505.01 180.55
  C 505.00 172.27 506.47 158.22 503.51 151.21
  Q 499.97 142.85 489.29 141.62"
/>
<path stroke="#9b314d" vector-effect="non-scaling-stroke" d="
  M 489.29 141.62
  L 483.84 141.69
  Q 483.01 141.71 483.01 142.53
  L 483.10 200.02
  Q 483.10 200.64 483.73 200.66
  L 489.23 200.87"
/>
<path stroke="#ee4c4c" vector-effect="non-scaling-stroke" d="
  M 489.29 141.62
  L 489.23 200.87"
/>
<path stroke="#9c3a57" vector-effect="non-scaling-stroke" d="
  M 22.75 141.75
  C 12.96 143.61 8.82 149.97 8.77 159.40
  Q 8.71 171.26 8.76 183.14
  C 8.80 192.53 12.93 199.04 22.73 200.79"
/>
<path stroke="#9b314d" vector-effect="non-scaling-stroke" d="
  M 22.73 200.79
  L 28.55 200.76
  A 0.21 0.21 0.0 0 0 28.76 200.55
  L 28.76 142.33
  Q 28.76 141.83 28.26 141.82
  L 22.75 141.75"
/>
<path stroke="#ee4c4c" vector-effect="non-scaling-stroke" d="
  M 22.73 200.79
  L 22.75 141.75"
/>
<path stroke="#9c3a57" vector-effect="non-scaling-stroke" d="
  M 40.52 200.72
  L 49.43 200.70"
/>
<path stroke="#9b314d" vector-effect="non-scaling-stroke" d="
  M 49.43 200.70
  L 55.15 200.66
  Q 55.75 200.65 55.75 200.06
  L 55.75 142.44
  Q 55.75 141.85 55.15 141.84
  L 49.45 141.80"
/>
<path stroke="#9c3a57" vector-effect="non-scaling-stroke" d="
  M 49.45 141.80
  L 40.50 141.78"
/>
<path stroke="#9d4662" vector-effect="non-scaling-stroke" d="
  M 40.50 141.78
  L 34.98 141.77
  Q 34.50 141.77 34.50 142.25
  L 34.50 200.25
  Q 34.50 200.73 34.98 200.73
  L 40.52 200.72"
/>
<path stroke="#f06161" vector-effect="non-scaling-stroke" d="
  M 40.50 141.78
  L 40.52 200.72"
/>
<path stroke="#ee4c4c" vector-effect="non-scaling-stroke" d="
  M 49.45 141.80
  L 49.43 200.70"
/>
<path stroke="#9c3a57" vector-effect="non-scaling-stroke" d="
  M 67.36 200.72
  L 75.17 200.70"
/>
<path stroke="#9b314d" vector-effect="non-scaling-stroke" d="
  M 75.17 200.70
  L 80.65 200.66
  Q 81.25 200.66 81.25 200.06
  L 81.25 142.45
  Q 81.25 141.81 80.61 141.80
  L 75.09 141.79"
/>
<path stroke="#9c3a57" vector-effect="non-scaling-stroke" d="
  M 75.09 141.79
  L 67.29 141.78"
/>
<path stroke="#9d4662" vector-effect="non-scaling-stroke" d="
  M 67.29 141.78
  L 61.73 141.77
  Q 61.25 141.77 61.25 142.25
  L 61.25 200.25
  Q 61.25 200.73 61.73 200.73
  L 67.36 200.72"
/>
<path stroke="#f06161" vector-effect="non-scaling-stroke" d="
  M 67.29 141.78
  L 67.36 200.72"
/>
<path stroke="#ee4c4c" vector-effect="non-scaling-stroke" d="
  M 75.09 141.79
  L 75.17 200.70"
/>
<path stroke="#9c3a57" vector-effect="non-scaling-stroke" d="
  M 93.04 200.73
  L 99.75 200.74"
/>
<path stroke="#9b314d" vector-effect="non-scaling-stroke" d="
  M 99.75 200.74
  L 105.20 200.87
  A 0.56 0.56 0.0 0 0 105.78 200.31
  L 106.03 142.33
  Q 106.04 141.80 105.50 141.80
  L 99.75 141.79"
/>
<path stroke="#9c3a57" vector-effect="non-scaling-stroke" d="
  M 99.75 141.79
  L 92.90 141.80"
/>
<path stroke="#9d4662" vector-effect="non-scaling-stroke" d="
  M 92.90 141.80
  L 87.59 141.84
  Q 87.00 141.84 87.00 142.44
  L 87.00 200.28
  Q 87.00 200.91 87.63 200.89
  L 93.04 200.73"
/>
<path stroke="#f06161" vector-effect="non-scaling-stroke" d="
  M 92.90 141.80
  L 93.04 200.73"
/>
<path stroke="#ee4c4c" vector-effect="non-scaling-stroke" d="
  M 99.75 141.79
  L 99.75 200.74"
/>
<path stroke="#9c3a57" vector-effect="non-scaling-stroke" d="
  M 116.41 200.72
  L 125.33 200.70"
/>
<path stroke="#9b314d" vector-effect="non-scaling-stroke" d="
  M 125.33 200.70
  L 130.89 200.66
  Q 131.50 200.66 131.50 200.05
  L 131.50 142.45
  A 0.61 0.61 0.0 0 0 130.89 141.84
  L 125.28 141.80"
/>
<path stroke="#9c3a57" vector-effect="non-scaling-stroke" d="
  M 125.28 141.80
  L 116.41 141.78"
/>
<path stroke="#9d4662" vector-effect="non-scaling-stroke" d="
  M 116.41 141.78
  L 111.98 141.77
  Q 111.50 141.77 111.50 142.25
  L 111.50 200.25
  Q 111.50 200.73 111.98 200.73
  L 116.41 200.72"
/>
<path stroke="#f06161" vector-effect="non-scaling-stroke" d="
  M 116.41 141.78
  L 116.41 200.72"
/>
<path stroke="#ee4c4c" vector-effect="non-scaling-stroke" d="
  M 125.28 141.80
  L 125.33 200.70"
/>
<path stroke="#a088a6" vector-effect="non-scaling-stroke" d="
  M 48.21 452.49
  L 204.50 452.48
  Q 205.00 452.48 205.00 451.99
  L 205.00 324.50
  A 3.25 3.25 0.0 0 1 208.25 321.25
  L 303.75 321.25
  A 3.25 3.25 0.0 0 1 307.00 324.50
  L 307.00 451.99
  Q 307.00 452.48 307.50 452.48
  L 463.50 452.49"
/>
<path stroke="#957b98" vector-effect="non-scaling-stroke" d="
  M 463.50 452.49
  L 481.02 452.48
  Q 481.50 452.48 481.50 451.99
  L 481.50 207.51
  Q 481.50 207.02 481.02 207.02
  L 463.50 207.00"
/>
<path stroke="#a088a6" vector-effect="non-scaling-stroke" d="
  M 463.50 207.00
  L 48.26 207.00"
/>
<path stroke="#a48fac" vector-effect="non-scaling-stroke" d="
  M 48.26 207.00
  L 31.47 207.00
  A 0.95 0.94 90.0 0 0 30.53 207.95
  L 30.49 451.96
  A 0.53 0.53 0.0 0 0 31.02 452.49
  L 48.21 452.49"
/>
<path stroke="#fbf8f9" vector-effect="non-scaling-stroke" d="
  M 48.26 207.00
  L 48.21 452.49"
/>
<path stroke="#ebe4e5" vector-effect="non-scaling-stroke" d="
  M 463.50 207.00
  L 463.50 452.49"
/>
<path stroke="#6a7296" vector-effect="non-scaling-stroke" d="
  M 217.92 345.73
  L 300.89 345.73
  Q 301.41 345.73 301.41 345.21
  L 301.53 327.29
  A 0.52 0.52 0.0 0 0 301.01 326.76
  L 217.53 326.76"
/>
<path stroke="#7a7d9f" vector-effect="non-scaling-stroke" d="
  M 217.53 326.76
  L 211.24 326.77
  Q 210.75 326.77 210.75 327.26
  L 210.75 345.24
  Q 210.75 345.73 211.24 345.73
  L 217.92 345.73"
/>
<path stroke="#9bd0dd" vector-effect="non-scaling-stroke" d="
  M 217.53 326.76
  L 217.92 345.73"
/>
<path stroke="#9c3a57" vector-effect="non-scaling-stroke" d="
  M 217.58 451.97
  L 248.23 451.97"
/>
<path stroke="#9d4662" vector-effect="non-scaling-stroke" d="
  M 248.23 451.97
  L 252.66 451.91
  Q 253.25 451.90 253.25 451.31
  L 253.25 352.00
  Q 253.25 351.52 252.77 351.52
  L 248.24 351.51"
/>
<path stroke="#9c3a57" vector-effect="non-scaling-stroke" d="
  M 248.24 351.51
  L 217.51 351.51"
/>
<path stroke="#9b314d" vector-effect="non-scaling-stroke" d="
  M 217.51 351.51
  L 211.28 351.46
  Q 210.75 351.45 210.75 351.98
  L 210.75 451.30
  Q 210.75 451.90 211.35 451.91
  L 217.58 451.97"
/>
<path stroke="#ee4c4c" vector-effect="non-scaling-stroke" d="
  M 217.51 351.51
  L 217.58 451.97"
/>
<path stroke="#f06161" vector-effect="non-scaling-stroke" d="
  M 248.24 351.51
  L 248.23 451.97"
/>
<path stroke="#9c3a57" vector-effect="non-scaling-stroke" d="
  M 263.80 451.97
  L 295.04 451.97"
/>
<path stroke="#9b314d" vector-effect="non-scaling-stroke" d="
  M 295.04 451.97
  L 300.87 451.87
  Q 301.50 451.86 301.50 451.24
  L 301.49 352.75
  Q 301.49 351.52 300.25 351.52
  L 295.03 351.51"
/>
<path stroke="#9c3a57" vector-effect="non-scaling-stroke" d="
  M 295.03 351.51
  L 263.82 351.52"
/>
<path stroke="#9d4662" vector-effect="non-scaling-stroke" d="
  M 263.82 351.52
  L 259.34 351.59
  Q 258.75 351.60 258.75 352.19
  L 258.75 451.31
  Q 258.75 451.90 259.34 451.91
  L 263.80 451.97"
/>
<path stroke="#f06161" vector-effect="non-scaling-stroke" d="
  M 263.82 351.52
  L 263.80 451.97"
/>
<path stroke="#ee4c4c" vector-effect="non-scaling-stroke" d="
  M 295.03 351.51
  L 295.04 451.97"
/>
<path stroke="#9c3a57" vector-effect="non-scaling-stroke" d="
  M 5.67 463.52
  L 5.79 470.51"
/>
<path stroke="#9b314d" vector-effect="non-scaling-stroke" d="
  M 5.79 470.51
  L 5.65 474.91
  Q 5.64 475.50 6.22 475.50
  L 505.82 475.50
  A 0.61 0.61 0.0 0 0 506.43 474.90
  L 506.44 471.49"
/>
<path stroke="#9c3a57" vector-effect="non-scaling-stroke" d="
  M 506.44 471.49
  L 506.24 463.50"
/>
<path stroke="#9d4662" vector-effect="non-scaling-stroke" d="
  M 506.24 463.50
  L 506.42 458.77
  Q 506.44 458.25 505.93 458.25
  L 5.93 458.25
  A 0.24 0.24 0.0 0 0 5.69 458.49
  L 5.67 463.52"
/>
<path stroke="#f06161" vector-effect="non-scaling-stroke" d="
  M 506.24 463.50
  L 5.67 463.52"
/>
<path stroke="#ee4c4c" vector-effect="non-scaling-stroke" d="
  M 506.44 471.49
  Q 505.41 470.50 501.75 470.50
  Q 253.77 470.49 5.79 470.51"
/>
<path stroke="#957b98" vector-effect="non-scaling-stroke" d="
  M 208.51 136.99
  C 216.03 141.44 224.00 138.96 229.51 133.02
  C 236.79 125.18 251.84 108.77 239.38 98.15"
/>
<path stroke="#a088a6" vector-effect="non-scaling-stroke" d="
  M 239.38 98.15
  Q 225.52 86.71 211.43 75.57
  C 210.39 74.76 208.93 74.70 208.14 75.75
  A 2.31 2.30 -51.9 0 0 208.52 78.92
  Q 219.35 87.73 230.38 96.67
  C 234.79 100.24 238.36 106.36 233.77 111.53
  C 230.33 115.39 226.48 112.97 222.96 110.12
  Q 211.22 100.61 199.46 91.11
  A 1.56 1.53 67.0 0 0 198.67 90.78
  C 194.63 90.36 192.13 95.32 195.52 97.75
  C 204.06 103.84 212.23 111.21 220.43 117.83
  C 225.11 121.60 223.70 127.37 219.00 130.14
  C 213.84 133.18 209.07 130.78 204.39 127.18
  Q 193.45 118.76 183.23 110.25
  A 2.33 2.33 0.0 0 0 179.81 110.72
  Q 178.60 112.49 180.16 113.82
  Q 194.29 125.90 208.51 136.99"
/>
<path stroke="#ebe4e5" vector-effect="non-scaling-stroke" d="
  M 239.38 98.15
  Q 239.22 99.65 239.12 103.45
  C 238.62 120.96 225.41 133.57 208.51 136.99"
/>
<path stroke="#957b98" vector-effect="non-scaling-stroke" d="
  M 287.66 91.00
  C 276.55 99.20 267.12 117.95 280.01 129.12"
/>
<path stroke="#a088a6" vector-effect="non-scaling-stroke" d="
  M 280.01 129.12
  C 295.24 139.70 316.02 126.46 323.41 112.55
  C 328.16 103.60 328.82 92.66 319.92 86.22
  C 310.45 79.35 295.89 84.09 287.66 91.00"
/>
<path stroke="#ebe4e5" vector-effect="non-scaling-stroke" d="
  M 280.01 129.12
  Q 279.58 126.40 278.93 123.84
  C 276.15 112.88 279.80 101.59 287.06 93.19
  Q 287.38 92.82 287.46 92.33
  L 287.66 91.00"
/>
<path stroke="#9d4662" vector-effect="non-scaling-stroke" d="
  M 242.90 137.93
  Q 243.78 138.97 244.99 139.32
  Q 245.45 139.46 245.82 139.15
  L 251.67 134.29
  Q 252.13 133.91 251.66 133.55
  L 248.35 130.95"
/>
<path stroke="#a48fac" vector-effect="non-scaling-stroke" d="
  M 248.35 130.95
  L 242.94 126.75
  Q 242.51 126.41 242.16 126.84
  L 237.34 132.88
  Q 236.99 133.32 237.44 133.67
  L 242.90 137.93"
/>
<path stroke="#f8b6b6" vector-effect="non-scaling-stroke" d="
  M 248.35 130.95
  Q 246.39 134.98 242.90 137.93"
/>
<path stroke="#9d4662" vector-effect="non-scaling-stroke" d="
  M 225.91 169.34
  Q 229.05 171.77 231.52 169.78
  Q 253.78 151.91 275.88 133.81
  Q 276.28 133.48 275.92 133.10
  L 273.39 130.50"
/>
<path stroke="#9c3a57" vector-effect="non-scaling-stroke" d="
  M 273.39 130.50
  L 270.82 126.85
  Q 270.51 126.41 270.09 126.75
  Q 249.07 143.77 228.11 160.76
  C 225.07 163.22 222.65 165.81 225.91 169.34"
/>
<path stroke="#f06161" vector-effect="non-scaling-stroke" d="
  M 273.39 130.50
  Q 251.37 148.40 229.29 166.04
  Q 227.51 167.46 225.91 169.34"
/>
<path stroke="#9c3a57" vector-effect="non-scaling-stroke" d="
  M 265.15 150.03
  L 262.24 152.29
  Q 261.77 152.66 262.24 153.03
  Q 271.74 160.60 281.35 167.93
  C 283.63 169.67 285.81 169.89 287.92 167.97"
/>
<path stroke="#9d4662" vector-effect="non-scaling-stroke" d="
  M 287.92 167.97
  Q 291.08 164.13 287.28 161.19
  Q 278.33 154.26 269.32 147.21
  Q 268.88 146.87 268.46 147.23
  L 265.15 150.03"
/>
<path stroke="#f06161" vector-effect="non-scaling-stroke" d="
  M 287.92 167.97
  L 265.15 150.03"
/>
<path stroke="#fbf8f9" vector-effect="non-scaling-stroke" d="
  M 322.99 93.73
  C 322.40 92.57 321.93 90.88 320.58 89.99
  A 0.43 0.43 0.0 0 0 319.93 90.45
  C 320.62 93.24 321.98 96.03 322.14 98.68
  C 322.31 101.63 322.11 106.05 320.58 108.65
  Q 319.90 109.81 320.01 110.64
  A 0.51 0.51 0.0 0 0 320.91 110.88
  Q 327.49 102.54 322.99 93.73"
/>
<path stroke="#a088a6" vector-effect="non-scaling-stroke" d="
  M 208.14 312.75
  L 303.92 312.75
  A 2.94 2.94 0.0 0 0 306.86 309.81
  L 306.86 305.75
  A 51.20 50.68 90.0 0 0 256.18 254.55
  L 255.88 254.55
  A 51.20 50.68 -90.0 0 0 205.20 305.75
  L 205.20 309.81
  A 2.94 2.94 0.0 0 0 208.14 312.75"
/>
<path stroke="#a088a6" vector-effect="non-scaling-stroke" d="
  M 72.19 369.49
  C 70.04 369.51 64.83 368.77 64.79 372.31
  Q 64.70 380.65 64.77 388.55
  A 3.23 3.22 -0.2 0 0 68.00 391.75
  L 167.75 391.75
  A 3.00 3.00 0.0 0 0 170.75 388.75
  L 170.75 372.25
  A 2.75 2.75 0.0 0 0 168.00 369.50
  L 161.51 369.50
  Q 161.00 369.50 161.00 368.99
  Q 161.00 344.14 161.00 319.30
  Q 160.99 308.07 159.58 302.45
  C 150.71 267.14 105.85 257.22 82.68 285.32
  Q 72.68 297.45 72.73 314.00
  Q 72.81 341.48 72.72 368.96
  Q 72.72 369.49 72.19 369.49"
/>
<path stroke="#a088a6" vector-effect="non-scaling-stroke" d="
  M 351.25 369.50
  L 346.50 369.50
  A 2.75 2.75 0.0 0 0 343.75 372.25
  L 343.75 388.75
  A 3.00 3.00 0.0 0 0 346.75 391.75
  L 446.76 391.75
  A 2.98 2.98 0.0 0 0 449.74 388.77
  Q 449.76 381.15 449.75 373.13
  C 449.74 367.86 443.88 369.76 440.55 369.40
  Q 439.99 369.35 440.00 368.79
  Q 440.37 343.77 440.08 318.74
  Q 439.94 307.23 438.37 301.42
  C 426.23 256.54 362.34 259.43 352.84 304.38
  C 351.48 310.87 352.06 318.91 351.92 326.09
  C 351.63 340.49 352.07 354.64 351.83 368.93
  Q 351.82 369.50 351.25 369.50"
/>
<path stroke="#6a7296" vector-effect="non-scaling-stroke" d="
  M 221.06 307.23
  L 300.69 307.24
  Q 301.16 307.24 301.18 306.76
  Q 301.58 295.14 297.04 286.25
  Q 284.05 260.84 255.86 260.35"
/>
<path stroke="#7a7d9f" vector-effect="non-scaling-stroke" d="
  M 255.86 260.35
  C 229.82 260.94 210.88 280.91 210.85 306.67
  Q 210.85 307.20 211.37 307.20
  L 221.06 307.23"
/>
<path stroke="#9bd0dd" vector-effect="non-scaling-stroke" d="
  M 255.86 260.35
  Q 238.64 269.49 228.90 283.66
  Q 221.78 294.02 221.06 307.23"
/>
<path stroke="#c5e2ea" vector-effect="non-scaling-stroke" d="
  M 244.96 273.06
  Q 244.74 272.84 244.47 272.99
  Q 239.35 275.80 235.90 280.59
  Q 235.46 281.20 235.46 281.65
  Q 235.46 282.41 236.30 282.77
  A 0.65 0.64 -59.7 0 0 237.08 282.56
  Q 240.53 277.80 245.54 274.73
  A 0.62 0.62 0.0 0 0 245.66 273.76
  L 244.96 273.06"
/>
<path stroke="#c5e2ea" vector-effect="non-scaling-stroke" d="
  M 234.4397 286.0111
  A 0.94 0.94 0.0 0 0 234.0956 284.7271
  L 233.9744 284.6571
  A 0.94 0.94 0.0 0 0 232.6903 285.0011
  L 229.3603 290.7689
  A 0.94 0.94 0.0 0 0 229.7044 292.0529
  L 229.8256 292.1229
  A 0.94 0.94 0.0 0 0 231.1097 291.7789
  L 234.4397 286.0111"
/>
<path stroke="#9d4662" vector-effect="non-scaling-stroke" d="
  M 116.04 274.97
  C 96.01 274.02 81.14 291.03 78.55 309.47
  Q 78.48 309.99 79.00 309.99
  L 92.52 310.03"
/>
<path stroke="#9c3a57" vector-effect="non-scaling-stroke" d="
  M 92.52 310.03
  L 143.38 309.93"
/>
<path stroke="#9b314d" vector-effect="non-scaling-stroke" d="
  M 143.38 309.93
  L 154.77 309.89
  Q 155.34 309.89 155.27 309.31
  C 153.06 291.06 139.02 276.13 120.22 274.95"
/>
<path stroke="#9c3a57" vector-effect="non-scaling-stroke" d="
  M 120.22 274.95
  Q 116.73 274.06 116.04 274.97"
/>
<path stroke="#ee4c4c" vector-effect="non-scaling-stroke" d="
  M 120.22 274.95
  Q 140.65 287.05 143.38 309.93"
/>
<path stroke="#f06161" vector-effect="non-scaling-stroke" d="
  M 92.52 310.03
  Q 93.16 307.19 93.77 304.51
  Q 98.15 285.24 116.04 274.97"
/>
<path stroke="#6a7296" vector-effect="non-scaling-stroke" d="
  M 87.49 340.71
  L 113.68 340.74
  A 0.56 0.55 -0.0 0 0 114.24 340.19
  L 114.20 320.77"
/>
<path stroke="#7a7d9f" vector-effect="non-scaling-stroke" d="
  M 114.20 320.77
  L 114.23 316.24
  Q 114.23 315.75 113.74 315.75
  L 79.28 315.75
  Q 78.50 315.75 78.50 316.53
  L 78.50 340.25
  Q 78.50 340.72 78.98 340.72
  L 87.49 340.71"
/>
<path stroke="#9bd0dd" vector-effect="non-scaling-stroke" d="
  M 114.20 320.77
  L 100.15 328.84"
/>
<path stroke="#d5edf2" vector-effect="non-scaling-stroke" d="
  M 100.15 328.84
  L 99.76 327.04
  A 0.54 0.54 0.0 0 0 99.00 326.67
  Q 96.56 327.89 94.66 329.89
  Q 93.91 330.68 94.10 331.19
  Q 94.35 331.82 95.77 332.06"
/>
<path stroke="#9bd0dd" vector-effect="non-scaling-stroke" d="
  M 95.77 332.06
  L 95.66 332.41
  Q 95.51 332.85 95.17 333.18
  L 87.49 340.71"
/>
<path stroke="#c5e2ea" vector-effect="non-scaling-stroke" d="
  M 95.77 332.06
  L 100.15 328.84"
/>
<path stroke="#6a7296" vector-effect="non-scaling-stroke" d="
  M 155.49 316.06
  A 0.31 0.31 0.0 0 0 155.18 315.75
  L 120.06 315.75
  A 0.31 0.31 0.0 0 0 119.75 316.06
  L 119.75 340.44
  A 0.31 0.31 0.0 0 0 120.06 340.75
  L 155.18 340.75
  A 0.31 0.31 0.0 0 0 155.49 340.44
  L 155.49 316.06"
/>
<path stroke="#6a7296" vector-effect="non-scaling-stroke" d="
  M 114.25 346.79
  A 0.30 0.30 0.0 0 0 113.95 346.49
  L 78.79 346.49
  A 0.30 0.30 0.0 0 0 78.49 346.79
  L 78.49 368.95
  A 0.30 0.30 0.0 0 0 78.79 369.25
  L 113.95 369.25
  A 0.30 0.30 0.0 0 0 114.25 368.95
  L 114.25 346.79"
/>
<path stroke="#6a7296" vector-effect="non-scaling-stroke" d="
  M 155.51 346.77
  A 0.27 0.27 0.0 0 0 155.24 346.50
  L 120.02 346.50
  A 0.27 0.27 0.0 0 0 119.75 346.77
  L 119.75 368.99
  A 0.27 0.27 0.0 0 0 120.02 369.26
  L 155.24 369.26
  A 0.27 0.27 0.0 0 0 155.51 368.99
  L 155.51 346.77"
/>
<path stroke="#9c3a57" vector-effect="non-scaling-stroke" d="
  M 81.50 386.06
  L 153.26 386.08"
/>
<path stroke="#9b314d" vector-effect="non-scaling-stroke" d="
  M 153.26 386.08
  L 164.65 385.88
  Q 165.25 385.87 165.25 385.26
  L 165.25 375.79
  Q 165.25 375.30 164.75 375.29
  L 153.48 375.26"
/>
<path stroke="#9c3a57" vector-effect="non-scaling-stroke" d="
  M 153.48 375.26
  L 81.56 375.26"
/>
<path stroke="#9d4662" vector-effect="non-scaling-stroke" d="
  M 81.56 375.26
  L 70.79 375.22
  Q 70.25 375.21 70.25 375.75
  L 70.25 385.74
  A 0.54 0.54 0.0 0 0 70.80 386.28
  L 81.50 386.06"
/>
<path stroke="#f06161" vector-effect="non-scaling-stroke" d="
  M 81.56 375.26
  L 81.50 386.06"
/>
<path stroke="#ee4c4c" vector-effect="non-scaling-stroke" d="
  M 153.48 375.26
  L 153.26 386.08"
/>
<path stroke="#9c3a57" vector-effect="non-scaling-stroke" d="
  M 371.57 310.02
  L 422.35 310.01"
/>
<path stroke="#9b314d" vector-effect="non-scaling-stroke" d="
  M 422.35 310.01
  L 433.53 310.21
  A 0.69 0.69 0.0 0 0 434.23 309.46
  C 432.37 290.73 417.73 276.25 398.81 274.87"
/>
<path stroke="#9c3a57" vector-effect="non-scaling-stroke" d="
  M 398.81 274.87
  L 395.75 274.67"
/>
<path stroke="#9d4662" vector-effect="non-scaling-stroke" d="
  M 395.75 274.67
  C 375.69 275.27 359.77 289.50 357.80 309.46
  Q 357.74 309.99 358.28 309.99
  L 371.57 310.02"
/>
<path stroke="#f06161" vector-effect="non-scaling-stroke" d="
  M 395.75 274.67
  Q 384.67 280.71 378.83 289.83
  Q 373.13 298.74 371.57 310.02"
/>
<path stroke="#ee4c4c" vector-effect="non-scaling-stroke" d="
  M 398.81 274.87
  Q 419.66 286.68 422.35 310.01"
/>
<path stroke="#6a7296" vector-effect="non-scaling-stroke" d="
  M 366.39 340.70
  L 392.69 340.74
  A 0.56 0.55 -90.0 0 0 393.24 340.18
  L 393.20 320.77"
/>
<path stroke="#7a7d9f" vector-effect="non-scaling-stroke" d="
  M 393.20 320.77
  L 393.22 316.22
  Q 393.22 315.75 392.75 315.75
  L 358.03 315.75
  Q 357.50 315.75 357.50 316.28
  L 357.50 340.24
  Q 357.50 340.73 357.99 340.73
  L 366.39 340.70"
/>
<path stroke="#9bd0dd" vector-effect="non-scaling-stroke" d="
  M 393.20 320.77
  L 377.77 329.85"
/>
<path stroke="#d5edf2" vector-effect="non-scaling-stroke" d="
  M 377.77 329.85
  Q 379.44 328.12 378.91 326.97
  A 0.74 0.73 58.8 0 0 377.79 326.69
  L 373.26 330.16
  A 0.70 0.69 75.0 0 0 373.01 330.60
  Q 372.87 331.60 374.79 332.34"
/>
<path stroke="#9bd0dd" vector-effect="non-scaling-stroke" d="
  M 374.79 332.34
  L 366.39 340.70"
/>
<path stroke="#c5e2ea" vector-effect="non-scaling-stroke" d="
  M 374.79 332.34
  Q 375.82 330.67 377.77 329.85"
/>
<path stroke="#6a7296" vector-effect="non-scaling-stroke" d="
  M 434.50 316.06
  A 0.31 0.31 0.0 0 0 434.19 315.75
  L 399.07 315.75
  A 0.31 0.31 0.0 0 0 398.76 316.06
  L 398.76 340.44
  A 0.31 0.31 0.0 0 0 399.07 340.75
  L 434.19 340.75
  A 0.31 0.31 0.0 0 0 434.50 340.44
  L 434.50 316.06"
/>
<path stroke="#6a7296" vector-effect="non-scaling-stroke" d="
  M 393.24 346.79
  A 0.30 0.30 0.0 0 0 392.94 346.49
  L 357.80 346.49
  A 0.30 0.30 0.0 0 0 357.50 346.79
  L 357.50 368.95
  A 0.30 0.30 0.0 0 0 357.80 369.25
  L 392.94 369.25
  A 0.30 0.30 0.0 0 0 393.24 368.95
  L 393.24 346.79"
/>
<path stroke="#6a7296" vector-effect="non-scaling-stroke" d="
  M 434.51 346.77
  A 0.27 0.27 0.0 0 0 434.24 346.50
  L 399.02 346.50
  A 0.27 0.27 0.0 0 0 398.75 346.77
  L 398.75 368.99
  A 0.27 0.27 0.0 0 0 399.02 369.26
  L 434.24 369.26
  A 0.27 0.27 0.0 0 0 434.51 368.99
  L 434.51 346.77"
/>
<path stroke="#9c3a57" vector-effect="non-scaling-stroke" d="
  M 360.28 386.02
  L 432.21 386.01"
/>
<path stroke="#9b314d" vector-effect="non-scaling-stroke" d="
  M 432.21 386.01
  L 443.34 386.16
  A 0.90 0.90 0.0 0 0 444.25 385.26
  L 444.25 375.75
  Q 444.25 375.21 443.71 375.21
  L 432.05 375.25"
/>
<path stroke="#9c3a57" vector-effect="non-scaling-stroke" d="
  M 432.05 375.25
  L 360.31 375.25"
/>
<path stroke="#9d4662" vector-effect="non-scaling-stroke" d="
  M 360.31 375.25
  L 349.79 375.21
  Q 349.25 375.21 349.25 375.75
  L 349.25 385.71
  Q 349.25 386.19 349.73 386.18
  L 360.28 386.02"
/>
<path stroke="#f06161" vector-effect="non-scaling-stroke" d="
  M 360.31 375.25
  L 360.28 386.02"
/>
<path stroke="#ee4c4c" vector-effect="non-scaling-stroke" d="
  M 432.21 386.01
  L 432.05 375.25"
/>
<path stroke="#d5edf2" vector-effect="non-scaling-stroke" d="
  M 378.3425 324.0453
  A 1.05 1.05 0.0 0 0 376.8693 323.8592
  L 370.3268 328.9341
  A 1.05 1.05 0.0 0 0 370.1407 330.4073
  L 370.1775 330.4547
  A 1.05 1.05 0.0 0 0 371.6507 330.6408
  L 378.1932 325.5659
  A 1.05 1.05 0.0 0 0 378.3793 324.0927
  L 378.3425 324.0453"
/>
<path stroke="#d5edf2" vector-effect="non-scaling-stroke" d="
  M 99.3644 324.0298
  A 1.09 1.09 0.0 0 0 97.8334 323.8500
  L 91.3983 328.9321
  A 1.09 1.09 0.0 0 0 91.2184 330.4631
  L 91.2556 330.5102
  A 1.09 1.09 0.0 0 0 92.7866 330.6900
  L 99.2217 325.6079
  A 1.09 1.09 0.0 0 0 99.4016 324.0769
  L 99.3644 324.0298"
/>
<path stroke="#c5e2ea" vector-effect="non-scaling-stroke" d="
  M 143.1566 324.0198
  A 1.03 1.03 0.0 0 0 141.7111 323.8398
  L 135.2406 328.8769
  A 1.03 1.03 0.0 0 0 135.0606 330.3224
  L 135.1834 330.4802
  A 1.03 1.03 0.0 0 0 136.6289 330.6602
  L 143.0994 325.6231
  A 1.03 1.03 0.0 0 0 143.2794 324.1776
  L 143.1566 324.0198"
/>
<path stroke="#c5e2ea" vector-effect="non-scaling-stroke" d="
  M 143.6585 327.0828
  A 1.05 1.05 0.0 0 0 142.1811 326.9328
  L 138.3684 330.0424
  A 1.05 1.05 0.0 0 0 138.2183 331.5197
  L 138.2815 331.5972
  A 1.05 1.05 0.0 0 0 139.7589 331.7472
  L 143.5716 328.6376
  A 1.05 1.05 0.0 0 0 143.7217 327.1603
  L 143.6585 327.0828"
/>
<path stroke="#c5e2ea" vector-effect="non-scaling-stroke" d="
  M 422.2417 323.9928
  A 1.08 1.08 0.0 0 0 420.7251 323.8120
  L 414.2497 328.9077
  A 1.08 1.08 0.0 0 0 414.0688 330.4243
  L 414.1183 330.4872
  A 1.08 1.08 0.0 0 0 415.6349 330.6680
  L 422.1103 325.5723
  A 1.08 1.08 0.0 0 0 422.2912 324.0557
  L 422.2417 323.9928"
/>
<path stroke="#c5e2ea" vector-effect="non-scaling-stroke" d="
  M 422.6804 327.0994
  A 1.03 1.03 0.0 0 0 421.2323 326.9421
  L 417.3668 330.0501
  A 1.03 1.03 0.0 0 0 417.2095 331.4982
  L 417.2596 331.5606
  A 1.03 1.03 0.0 0 0 418.7077 331.7179
  L 422.5732 328.6099
  A 1.03 1.03 0.0 0 0 422.7305 327.1618
  L 422.6804 327.0994"
/>
<path stroke="#c5e2ea" vector-effect="non-scaling-stroke" d="
  M 99.3025 353.0044
  A 1.06 1.06 0.0 0 0 97.8137 352.8295
  L 91.3628 357.9240
  A 1.06 1.06 0.0 0 0 91.1879 359.4129
  L 91.2375 359.4756
  A 1.06 1.06 0.0 0 0 92.7263 359.6505
  L 99.1772 354.5560
  A 1.06 1.06 0.0 0 0 99.3521 353.0671
  L 99.3025 353.0044"
/>
<path stroke="#c5e2ea" vector-effect="non-scaling-stroke" d="
  M 93.93 359.99
  L 94.79 361.05
  A 0.43 0.43 0.0 0 0 95.39 361.11
  L 98.35 358.71
  A 2.90 0.97 -39.1 0 0 99.99 356.13
  L 99.81 355.91
  A 2.90 0.97 -39.1 0 0 96.95 356.99
  L 93.99 359.39
  A 0.43 0.43 0.0 0 0 93.93 359.99"
/>
<path stroke="#c5e2ea" vector-effect="non-scaling-stroke" d="
  M 378.3055 352.9922
  A 1.07 1.07 0.0 0 0 376.8023 352.8182
  L 370.4387 357.8620
  A 1.07 1.07 0.0 0 0 370.2648 359.3651
  L 370.3145 359.4278
  A 1.07 1.07 0.0 0 0 371.8177 359.6018
  L 378.1813 354.5580
  A 1.07 1.07 0.0 0 0 378.3552 353.0549
  L 378.3055 352.9922"
/>
<path stroke="#c5e2ea" vector-effect="non-scaling-stroke" d="
  M 378.9214 355.9693
  A 3.68 1.21 -39.7 0 0 375.3171 357.3890
  A 3.68 1.21 -39.7 0 0 373.2586 360.6707
  A 3.68 1.21 -39.7 0 0 376.8629 359.2510
  A 3.68 1.21 -39.7 0 0 378.9214 355.9693"
/>
<path stroke="#c5e2ea" vector-effect="non-scaling-stroke" d="
  M 143.1668 353.0467
  A 1.09 1.09 0.0 0 0 141.6358 352.8669
  L 135.2635 357.8995
  A 1.09 1.09 0.0 0 0 135.0836 359.4305
  L 135.1332 359.4933
  A 1.09 1.09 0.0 0 0 136.6642 359.6731
  L 143.0365 354.6405
  A 1.09 1.09 0.0 0 0 143.2164 353.1095
  L 143.1668 353.0467"
/>
<path stroke="#c5e2ea" vector-effect="non-scaling-stroke" d="
  M 137.70 359.95
  L 138.81 361.24
  A 0.29 0.29 0.0 0 0 139.22 361.27
  L 141.69 359.15
  A 3.72 1.03 -40.7 0 0 143.83 355.95
  L 143.69 355.78
  A 3.72 1.03 -40.7 0 0 140.20 357.42
  L 137.73 359.54
  A 0.29 0.29 0.0 0 0 137.70 359.95"
/>
<path stroke="#c5e2ea" vector-effect="non-scaling-stroke" d="
  M 422.1740 353.0491
  A 1.07 1.07 0.0 0 0 420.6717 352.8673
  L 414.2661 357.8900
  A 1.07 1.07 0.0 0 0 414.0843 359.3922
  L 414.1460 359.4709
  A 1.07 1.07 0.0 0 0 415.6483 359.6527
  L 422.0539 354.6300
  A 1.07 1.07 0.0 0 0 422.2357 353.1278
  L 422.1740 353.0491"
/>
<path stroke="#c5e2ea" vector-effect="non-scaling-stroke" d="
  M 416.81 359.94
  L 417.70 361.05
  A 0.44 0.44 0.0 0 0 418.32 361.12
  L 420.80 359.12
  A 3.57 0.97 -38.8 0 0 422.98 356.12
  L 422.75 355.84
  A 3.57 0.97 -38.8 0 0 419.36 357.32
  L 416.88 359.32
  A 0.44 0.44 0.0 0 0 416.81 359.94"
/>
<path stroke="#f7aaaa" vector-effect="non-scaling-stroke" d="
  M 245.25 393.11
  A 1.08 1.08 0.0 0 0 244.17 392.03
  L 244.11 392.03
  A 1.08 1.08 0.0 0 0 243.03 393.11
  L 243.03 403.93
  A 1.08 1.08 0.0 0 0 244.11 405.01
  L 244.17 405.01
  A 1.08 1.08 0.0 0 0 245.25 403.93
  L 245.25 393.11"
/>
<path stroke="#f7aaaa" vector-effect="non-scaling-stroke" d="
  M 245.25 408.34
  A 1.04 1.04 0.0 0 0 244.21 407.30
  L 244.11 407.30
  A 1.04 1.04 0.0 0 0 243.07 408.34
  L 243.07 412.18
  A 1.04 1.04 0.0 0 0 244.11 413.22
  L 244.21 413.22
  A 1.04 1.04 0.0 0 0 245.25 412.18
  L 245.25 408.34"
/>
<path stroke="#f7aaaa" vector-effect="non-scaling-stroke" d="
  M 268.6621 393.0625
  A 1.06 1.06 0.0 0 0 267.5948 392.0099
  L 267.5148 392.0104
  A 1.06 1.06 0.0 0 0 266.4622 393.0778
  L 266.5379 403.9175
  A 1.06 1.06 0.0 0 0 267.6052 404.9701
  L 267.6852 404.9696
  A 1.06 1.06 0.0 0 0 268.7378 403.9022
  L 268.6621 393.0625"
/>
<path stroke="#f7aaaa" vector-effect="non-scaling-stroke" d="
  M 268.6508 408.3124
  A 0.99 0.99 0.0 0 0 267.6818 407.3019
  L 267.5618 407.2994
  A 0.99 0.99 0.0 0 0 266.5513 408.2684
  L 266.4692 412.1876
  A 0.99 0.99 0.0 0 0 267.4382 413.1981
  L 267.5582 413.2006
  A 0.99 0.99 0.0 0 0 268.5687 412.2316
  L 268.6508 408.3124"
/>
</g>
<path fill="#491f58" d="
  M 512.00 454.82
  L 512.00 478.79
  Q 511.17 481.00 509.50 481.00
  Q 256.03 481.00 2.56 481.00
  Q 0.56 481.00 0.00 478.42
  L 0.00 454.94
  C 1.15 451.93 3.34 452.57 5.98 452.54
  Q 15.00 452.43 24.43 452.57
  Q 25.00 452.58 25.00 452.02
  L 25.00 207.47
  Q 25.00 206.88 24.41 206.83
  C 11.22 205.57 2.96 197.12 2.99 184.07
  Q 3.03 171.71 2.98 159.38
  C 2.93 144.51 12.00 136.00 26.67 136.00
  Q 86.21 136.00 145.55 136.00
  Q 146.34 136.00 146.38 135.22
  C 149.35 78.31 194.98 32.82 252.26 30.93
  C 312.70 28.93 362.20 75.49 365.43 135.46
  Q 365.46 135.99 365.99 135.99
  Q 425.33 136.03 484.62 135.98
  Q 492.29 135.98 496.20 137.35
  C 506.36 140.91 510.72 149.39 510.73 159.79
  Q 510.74 171.21 510.78 182.65
  C 510.84 197.10 502.36 206.34 487.39 206.84
  A 0.41 0.40 -1.5 0 0 487.00 207.24
  L 487.00 451.99
  Q 487.00 452.48 487.49 452.48
  Q 498.56 452.55 509.49 452.49
  Q 511.09 452.49 512.00 454.82
  Z
  M 249.36 36.74
  C 200.73 39.88 163.10 75.17 153.53 122.49
  L 152.82 128.34
  L 151.89 141.08
  Q 147.32 142.18 142.06 141.69
  L 137.73 141.75
  A 0.49 0.49 0.0 0 0 137.25 142.24
  L 137.25 200.25
  Q 137.25 200.73 137.73 200.73
  L 142.06 200.75
  L 368.88 200.75
  L 374.27 200.73
  Q 374.75 200.73 374.75 200.25
  L 374.75 142.25
  Q 374.75 141.77 374.27 141.77
  L 368.83 141.78
  L 360.15 141.55
  C 359.19 86.90 320.23 42.93 265.79 36.91
  L 249.36 36.74
  Z
  M 386.51 200.73
  L 395.53 200.73
  L 401.02 200.73
  Q 401.50 200.73 401.50 200.25
  L 401.50 142.47
  Q 401.50 141.80 400.83 141.80
  L 395.59 141.78
  L 386.48 141.78
  L 381.07 141.66
  Q 380.50 141.65 380.50 142.22
  L 380.50 200.25
  Q 380.50 200.73 380.98 200.73
  L 386.51 200.73
  Z
  M 413.35 200.78
  L 421.22 200.72
  L 426.82 200.67
  Q 427.25 200.67 427.25 200.24
  L 427.25 142.25
  Q 427.25 141.77 426.77 141.77
  L 421.15 141.77
  L 413.27 141.77
  L 407.86 141.63
  Q 407.25 141.62 407.25 142.22
  L 407.25 200.24
  Q 407.25 200.73 407.74 200.73
  L 413.35 200.78
  Z
  M 438.98 200.72
  L 444.66 200.72
  L 451.27 200.73
  Q 451.75 200.73 451.75 200.24
  L 451.75 142.25
  Q 451.75 141.77 451.27 141.77
  L 444.59 141.77
  L 439.02 141.76
  L 433.51 141.67
  Q 432.98 141.66 432.98 142.19
  L 433.01 200.25
  Q 433.01 200.73 433.48 200.73
  L 438.98 200.72
  Z
  M 463.61 200.72
  L 470.32 200.70
  L 476.90 200.66
  Q 477.50 200.65 477.50 200.05
  L 477.50 142.25
  Q 477.50 141.77 477.02 141.77
  L 470.27 141.77
  L 463.53 141.76
  L 458.11 141.69
  A 0.62 0.61 -89.5 0 0 457.49 142.31
  L 457.51 200.25
  Q 457.51 200.73 457.98 200.73
  L 463.61 200.72
  Z
  M 489.23 200.87
  C 501.62 199.75 505.02 191.71 505.01 180.55
  C 505.00 172.27 506.47 158.22 503.51 151.21
  Q 499.97 142.85 489.29 141.62
  L 483.84 141.69
  Q 483.01 141.71 483.01 142.53
  L 483.10 200.02
  Q 483.10 200.64 483.73 200.66
  L 489.23 200.87
  Z
  M 22.75 141.75
  C 12.96 143.61 8.82 149.97 8.77 159.40
  Q 8.71 171.26 8.76 183.14
  C 8.80 192.53 12.93 199.04 22.73 200.79
  L 28.55 200.76
  A 0.21 0.21 0.0 0 0 28.76 200.55
  L 28.76 142.33
  Q 28.76 141.83 28.26 141.82
  L 22.75 141.75
  Z
  M 40.52 200.72
  L 49.43 200.70
  L 55.15 200.66
  Q 55.75 200.65 55.75 200.06
  L 55.75 142.44
  Q 55.75 141.85 55.15 141.84
  L 49.45 141.80
  L 40.50 141.78
  L 34.98 141.77
  Q 34.50 141.77 34.50 142.25
  L 34.50 200.25
  Q 34.50 200.73 34.98 200.73
  L 40.52 200.72
  Z
  M 67.36 200.72
  L 75.17 200.70
  L 80.65 200.66
  Q 81.25 200.66 81.25 200.06
  L 81.25 142.45
  Q 81.25 141.81 80.61 141.80
  L 75.09 141.79
  L 67.29 141.78
  L 61.73 141.77
  Q 61.25 141.77 61.25 142.25
  L 61.25 200.25
  Q 61.25 200.73 61.73 200.73
  L 67.36 200.72
  Z
  M 93.04 200.73
  L 99.75 200.74
  L 105.20 200.87
  A 0.56 0.56 0.0 0 0 105.78 200.31
  L 106.03 142.33
  Q 106.04 141.80 105.50 141.80
  L 99.75 141.79
  L 92.90 141.80
  L 87.59 141.84
  Q 87.00 141.84 87.00 142.44
  L 87.00 200.28
  Q 87.00 200.91 87.63 200.89
  L 93.04 200.73
  Z
  M 116.41 200.72
  L 125.33 200.70
  L 130.89 200.66
  Q 131.50 200.66 131.50 200.05
  L 131.50 142.45
  A 0.61 0.61 0.0 0 0 130.89 141.84
  L 125.28 141.80
  L 116.41 141.78
  L 111.98 141.77
  Q 111.50 141.77 111.50 142.25
  L 111.50 200.25
  Q 111.50 200.73 111.98 200.73
  L 116.41 200.72
  Z
  M 48.21 452.49
  L 204.50 452.48
  Q 205.00 452.48 205.00 451.99
  L 205.00 324.50
  A 3.25 3.25 0.0 0 1 208.25 321.25
  L 303.75 321.25
  A 3.25 3.25 0.0 0 1 307.00 324.50
  L 307.00 451.99
  Q 307.00 452.48 307.50 452.48
  L 463.50 452.49
  L 481.02 452.48
  Q 481.50 452.48 481.50 451.99
  L 481.50 207.51
  Q 481.50 207.02 481.02 207.02
  L 463.50 207.00
  L 48.26 207.00
  L 31.47 207.00
  A 0.95 0.94 90.0 0 0 30.53 207.95
  L 30.49 451.96
  A 0.53 0.53 0.0 0 0 31.02 452.49
  L 48.21 452.49
  Z
  M 217.92 345.73
  L 300.89 345.73
  Q 301.41 345.73 301.41 345.21
  L 301.53 327.29
  A 0.52 0.52 0.0 0 0 301.01 326.76
  L 217.53 326.76
  L 211.24 326.77
  Q 210.75 326.77 210.75 327.26
  L 210.75 345.24
  Q 210.75 345.73 211.24 345.73
  L 217.92 345.73
  Z
  M 217.58 451.97
  L 248.23 451.97
  L 252.66 451.91
  Q 253.25 451.90 253.25 451.31
  L 253.25 352.00
  Q 253.25 351.52 252.77 351.52
  L 248.24 351.51
  L 217.51 351.51
  L 211.28 351.46
  Q 210.75 351.45 210.75 351.98
  L 210.75 451.30
  Q 210.75 451.90 211.35 451.91
  L 217.58 451.97
  Z
  M 263.80 451.97
  L 295.04 451.97
  L 300.87 451.87
  Q 301.50 451.86 301.50 451.24
  L 301.49 352.75
  Q 301.49 351.52 300.25 351.52
  L 295.03 351.51
  L 263.82 351.52
  L 259.34 351.59
  Q 258.75 351.60 258.75 352.19
  L 258.75 451.31
  Q 258.75 451.90 259.34 451.91
  L 263.80 451.97
  Z
  M 5.67 463.52
  L 5.79 470.51
  L 5.65 474.91
  Q 5.64 475.50 6.22 475.50
  L 505.82 475.50
  A 0.61 0.61 0.0 0 0 506.43 474.90
  L 506.44 471.49
  L 506.24 463.50
  L 506.42 458.77
  Q 506.44 458.25 505.93 458.25
  L 5.93 458.25
  A 0.24 0.24 0.0 0 0 5.69 458.49
  L 5.67 463.52
  Z"
/>
<path fill="#f6f1f3" d="
  M 265.79 36.91
  L 266.36 38.01
  Q 266.56 38.40 266.94 38.61
  Q 291.75 52.04 308.29 74.98
  Q 310.20 77.64 308.12 77.32
  C 286.35 78.79 266.26 97.24 268.38 120.32
  Q 268.43 120.80 268.06 121.10
  L 257.16 129.93
  A 0.70 0.70 0.0 0 1 256.30 129.94
  L 246.03 121.98
  A 0.61 0.61 0.0 0 1 245.88 121.19
  C 251.56 111.45 251.57 100.55 242.37 93.13
  Q 228.52 81.96 214.69 70.81
  Q 212.93 69.40 209.63 69.16
  Q 210.59 67.48 213.23 64.74
  C 222.62 54.98 231.93 46.51 243.82 40.46
  Q 246.80 38.94 249.36 36.74
  L 265.79 36.91
  Z"
/>
<path fill="#ffffff" d="
  M 249.36 36.74
  Q 246.80 38.94 243.82 40.46
  C 231.93 46.51 222.62 54.98 213.23 64.74
  Q 210.59 67.48 209.63 69.16
  Q 200.51 70.76 202.65 80.74
  Q 200.42 81.20 200.56 84.86
  Q 192.15 84.51 189.25 90.75
  Q 186.57 90.90 185.47 91.96
  Q 177.04 100.12 155.28 122.28
  Q 154.47 123.11 153.53 122.49
  C 163.10 75.17 200.73 39.88 249.36 36.74
  Z"
/>
<path fill="#e0d7d7" d="
  M 265.79 36.91
  C 320.23 42.93 359.19 86.90 360.15 141.55
  Q 360.63 154.41 360.58 167.37
  C 360.50 185.37 352.78 190.11 335.27 189.12
  Q 338.59 152.03 328.32 115.65
  Q 332.57 107.57 332.53 99.51
  C 332.45 85.58 321.45 77.36 308.12 77.32
  Q 310.20 77.64 308.29 74.98
  Q 291.75 52.04 266.94 38.61
  Q 266.56 38.40 266.36 38.01
  L 265.79 36.91
  Z"
/>
<path fill="#491f58" d="
  M 209.63 69.16
  Q 212.93 69.40 214.69 70.81
  Q 228.52 81.96 242.37 93.13
  C 251.57 100.55 251.56 111.45 245.88 121.19
  A 0.61 0.61 0.0 0 0 246.03 121.98
  L 256.30 129.94
  A 0.70 0.70 0.0 0 0 257.16 129.93
  L 268.06 121.10
  Q 268.43 120.80 268.38 120.32
  C 266.26 97.24 286.35 78.79 308.12 77.32
  C 321.45 77.36 332.45 85.58 332.53 99.51
  Q 332.57 107.57 328.32 115.65
  C 318.69 131.56 300.69 142.36 282.04 136.74
  Q 281.49 136.58 281.04 136.94
  L 273.81 142.82
  Q 273.33 143.21 273.82 143.58
  Q 282.57 150.37 291.27 157.23
  C 295.33 160.42 295.59 166.48 292.71 170.65
  C 288.34 176.98 281.82 175.51 276.45 171.28
  Q 267.02 163.86 257.58 156.55
  A 0.51 0.51 0.0 0 0 256.95 156.56
  Q 246.03 165.40 235.33 173.79
  C 225.24 181.70 213.02 168.16 221.41 159.20
  C 226.57 153.69 234.16 148.56 240.17 143.76
  Q 240.71 143.33 240.17 142.91
  L 233.60 137.85
  A 0.66 0.65 41.4 0 0 232.75 137.90
  Q 221.92 148.23 209.46 143.47
  Q 205.60 142.00 199.38 136.88
  Q 191.61 130.49 183.79 124.28
  C 178.82 120.41 173.22 116.97 173.72 110.82
  C 176.57 102.53 183.03 102.60 188.86 107.33
  Q 198.46 115.13 208.08 122.92
  C 210.67 125.01 215.42 127.45 217.57 123.90
  Q 218.11 123.01 217.31 122.36
  Q 204.44 111.83 191.69 101.55
  Q 186.66 97.49 189.25 90.75
  Q 192.15 84.51 200.56 84.86
  L 229.08 107.63
  Q 229.59 108.03 229.79 107.42
  C 230.62 104.98 229.70 103.29 227.68 101.65
  Q 214.80 91.23 202.65 80.74
  Q 200.51 70.76 209.63 69.16
  Z
  M 208.51 136.99
  C 216.03 141.44 224.00 138.96 229.51 133.02
  C 236.79 125.18 251.84 108.77 239.38 98.15
  Q 225.52 86.71 211.43 75.57
  C 210.39 74.76 208.93 74.70 208.14 75.75
  A 2.31 2.30 -51.9 0 0 208.52 78.92
  Q 219.35 87.73 230.38 96.67
  C 234.79 100.24 238.36 106.36 233.77 111.53
  C 230.33 115.39 226.48 112.97 222.96 110.12
  Q 211.22 100.61 199.46 91.11
  A 1.56 1.53 67.0 0 0 198.67 90.78
  C 194.63 90.36 192.13 95.32 195.52 97.75
  C 204.06 103.84 212.23 111.21 220.43 117.83
  C 225.11 121.60 223.70 127.37 219.00 130.14
  C 213.84 133.18 209.07 130.78 204.39 127.18
  Q 193.45 118.76 183.23 110.25
  A 2.33 2.33 0.0 0 0 179.81 110.72
  Q 178.60 112.49 180.16 113.82
  Q 194.29 125.90 208.51 136.99
  Z
  M 287.66 91.00
  C 276.55 99.20 267.12 117.95 280.01 129.12
  C 295.24 139.70 316.02 126.46 323.41 112.55
  C 328.16 103.60 328.82 92.66 319.92 86.22
  C 310.45 79.35 295.89 84.09 287.66 91.00
  Z
  M 242.90 137.93
  Q 243.78 138.97 244.99 139.32
  Q 245.45 139.46 245.82 139.15
  L 251.67 134.29
  Q 252.13 133.91 251.66 133.55
  L 248.35 130.95
  L 242.94 126.75
  Q 242.51 126.41 242.16 126.84
  L 237.34 132.88
  Q 236.99 133.32 237.44 133.67
  L 242.90 137.93
  Z
  M 225.91 169.34
  Q 229.05 171.77 231.52 169.78
  Q 253.78 151.91 275.88 133.81
  Q 276.28 133.48 275.92 133.10
  L 273.39 130.50
  L 270.82 126.85
  Q 270.51 126.41 270.09 126.75
  Q 249.07 143.77 228.11 160.76
  C 225.07 163.22 222.65 165.81 225.91 169.34
  Z
  M 265.15 150.03
  L 262.24 152.29
  Q 261.77 152.66 262.24 153.03
  Q 271.74 160.60 281.35 167.93
  C 283.63 169.67 285.81 169.89 287.92 167.97
  Q 291.08 164.13 287.28 161.19
  Q 278.33 154.26 269.32 147.21
  Q 268.88 146.87 268.46 147.23
  L 265.15 150.03
  Z"
/>
<path fill="#f6f1f3" d="
  M 239.38 98.15
  Q 239.22 99.65 239.12 103.45
  C 238.62 120.96 225.41 133.57 208.51 136.99
  Q 194.29 125.90 180.16 113.82
  Q 178.60 112.49 179.81 110.72
  A 2.33 2.33 0.0 0 1 183.23 110.25
  Q 193.45 118.76 204.39 127.18
  C 209.07 130.78 213.84 133.18 219.00 130.14
  C 223.70 127.37 225.11 121.60 220.43 117.83
  C 212.23 111.21 204.06 103.84 195.52 97.75
  C 192.13 95.32 194.63 90.36 198.67 90.78
  A 1.56 1.53 67.0 0 1 199.46 91.11
  Q 211.22 100.61 222.96 110.12
  C 226.48 112.97 230.33 115.39 233.77 111.53
  C 238.36 106.36 234.79 100.24 230.38 96.67
  Q 219.35 87.73 208.52 78.92
  A 2.31 2.30 -51.9 0 1 208.14 75.75
  C 208.93 74.70 210.39 74.76 211.43 75.57
  Q 225.52 86.71 239.38 98.15
  Z"
/>
<path fill="#f6f1f3" d="
  M 202.65 80.74
  Q 214.80 91.23 227.68 101.65
  C 229.70 103.29 230.62 104.98 229.79 107.42
  Q 229.59 108.03 229.08 107.63
  L 200.56 84.86
  Q 200.42 81.20 202.65 80.74
  Z"
/>
<path fill="#f6f1f3" d="
  M 280.01 129.12
  Q 279.58 126.40 278.93 123.84
  C 276.15 112.88 279.80 101.59 287.06 93.19
  Q 287.38 92.82 287.46 92.33
  L 287.66 91.00
  C 295.89 84.09 310.45 79.35 319.92 86.22
  C 328.82 92.66 328.16 103.60 323.41 112.55
  C 316.02 126.46 295.24 139.70 280.01 129.12
  Z
  M 322.99 93.73
  C 322.40 92.57 321.93 90.88 320.58 89.99
  A 0.43 0.43 0.0 0 0 319.93 90.45
  C 320.62 93.24 321.98 96.03 322.14 98.68
  C 322.31 101.63 322.11 106.05 320.58 108.65
  Q 319.90 109.81 320.01 110.64
  A 0.51 0.51 0.0 0 0 320.91 110.88
  Q 327.49 102.54 322.99 93.73
  Z"
/>
<path fill="#ffffff" d="
  M 322.99 93.73
  Q 327.49 102.54 320.91 110.88
  A 0.51 0.51 0.0 0 1 320.01 110.64
  Q 319.90 109.81 320.58 108.65
  C 322.11 106.05 322.31 101.63 322.14 98.68
  C 321.98 96.03 320.62 93.24 319.93 90.45
  A 0.43 0.43 0.0 0 1 320.58 89.99
  C 321.93 90.88 322.40 92.57 322.99 93.73
  Z"
/>
<path fill="#f6f1f3" d="
  M 189.25 90.75
  Q 186.66 97.49 191.69 101.55
  Q 204.44 111.83 217.31 122.36
  Q 218.11 123.01 217.57 123.90
  C 215.42 127.45 210.67 125.01 208.08 122.92
  Q 198.46 115.13 188.86 107.33
  C 183.03 102.60 176.57 102.53 173.72 110.82
  Q 173.16 110.30 172.65 110.24
  Q 172.19 110.19 171.71 110.76
  C 168.53 114.52 165.11 117.50 161.41 121.40
  Q 157.57 125.45 152.82 128.34
  L 153.53 122.49
  Q 154.47 123.11 155.28 122.28
  Q 177.04 100.12 185.47 91.96
  Q 186.57 90.90 189.25 90.75
  Z"
/>
<path fill="#e0d7d7" d="
  M 287.66 91.00
  L 287.46 92.33
  Q 287.38 92.82 287.06 93.19
  C 279.80 101.59 276.15 112.88 278.93 123.84
  Q 279.58 126.40 280.01 129.12
  C 267.12 117.95 276.55 99.20 287.66 91.00
  Z"
/>
<path fill="#e0d7d7" d="
  M 239.38 98.15
  C 251.84 108.77 236.79 125.18 229.51 133.02
  C 224.00 138.96 216.03 141.44 208.51 136.99
  C 225.41 133.57 238.62 120.96 239.12 103.45
  Q 239.22 99.65 239.38 98.15
  Z"
/>
<path fill="#ffffff" d="
  M 173.72 110.82
  C 173.22 116.97 178.82 120.41 183.79 124.28
  Q 183.86 124.99 182.90 125.63
  Q 182.45 125.92 182.33 126.45
  Q 175.35 157.24 178.31 189.03
  C 167.81 188.99 157.68 189.65 153.13 178.30
  Q 151.92 175.28 151.97 170.02
  Q 152.11 155.46 151.89 141.08
  L 152.82 128.34
  Q 157.57 125.45 161.41 121.40
  C 165.11 117.50 168.53 114.52 171.71 110.76
  Q 172.19 110.19 172.65 110.24
  Q 173.16 110.30 173.72 110.82
  Z"
/>
<path fill="#f6f1f3" d="
  M 328.32 115.65
  Q 338.59 152.03 335.27 189.12
  L 178.31 189.03
  Q 175.35 157.24 182.33 126.45
  Q 182.45 125.92 182.90 125.63
  Q 183.86 124.99 183.79 124.28
  Q 191.61 130.49 199.38 136.88
  Q 205.60 142.00 209.46 143.47
  Q 221.92 148.23 232.75 137.90
  A 0.66 0.65 41.4 0 1 233.60 137.85
  L 240.17 142.91
  Q 240.71 143.33 240.17 143.76
  C 234.16 148.56 226.57 153.69 221.41 159.20
  C 213.02 168.16 225.24 181.70 235.33 173.79
  Q 246.03 165.40 256.95 156.56
  A 0.51 0.51 0.0 0 1 257.58 156.55
  Q 267.02 163.86 276.45 171.28
  C 281.82 175.51 288.34 176.98 292.71 170.65
  C 295.59 166.48 295.33 160.42 291.27 157.23
  Q 282.57 150.37 273.82 143.58
  Q 273.33 143.21 273.81 142.82
  L 281.04 136.94
  Q 281.49 136.58 282.04 136.74
  C 300.69 142.36 318.69 131.56 328.32 115.65
  Z"
/>
<path fill="#ffffff" d="
  M 248.35 130.95
  Q 246.39 134.98 242.90 137.93
  L 237.44 133.67
  Q 236.99 133.32 237.34 132.88
  L 242.16 126.84
  Q 242.51 126.41 242.94 126.75
  L 248.35 130.95
  Z"
/>
<path fill="#ef5555" d="
  M 273.39 130.50
  Q 251.37 148.40 229.29 166.04
  Q 227.51 167.46 225.91 169.34
  C 222.65 165.81 225.07 163.22 228.11 160.76
  Q 249.07 143.77 270.09 126.75
  Q 270.51 126.41 270.82 126.85
  L 273.39 130.50
  Z"
/>
<path fill="#f06c6c" d="
  M 273.39 130.50
  L 275.92 133.10
  Q 276.28 133.48 275.88 133.81
  Q 253.78 151.91 231.52 169.78
  Q 229.05 171.77 225.91 169.34
  Q 227.51 167.46 229.29 166.04
  Q 251.37 148.40 273.39 130.50
  Z"
/>
<path fill="#f06c6c" d="
  M 248.35 130.95
  L 251.66 133.55
  Q 252.13 133.91 251.67 134.29
  L 245.82 139.15
  Q 245.45 139.46 244.99 139.32
  Q 243.78 138.97 242.90 137.93
  Q 246.39 134.98 248.35 130.95
  Z"
/>
<path fill="#ef5555" d="
  M 151.89 141.08
  Q 152.11 155.46 151.97 170.02
  Q 151.92 175.28 153.13 178.30
  C 157.68 189.65 167.81 188.99 178.31 189.03
  L 335.27 189.12
  C 352.78 190.11 360.50 185.37 360.58 167.37
  Q 360.63 154.41 360.15 141.55
  L 368.83 141.78
  L 368.88 200.75
  L 142.06 200.75
  L 142.06 141.69
  Q 147.32 142.18 151.89 141.08
  Z"
/>
<path fill="#ed4242" d="
  M 386.48 141.78
  L 386.51 200.73
  L 380.98 200.73
  Q 380.50 200.73 380.50 200.25
  L 380.50 142.22
  Q 380.50 141.65 381.07 141.66
  L 386.48 141.78
  Z"
/>
<path fill="#ed4242" d="
  M 413.27 141.77
  L 413.35 200.78
  L 407.74 200.73
  Q 407.25 200.73 407.25 200.24
  L 407.25 142.22
  Q 407.25 141.62 407.86 141.63
  L 413.27 141.77
  Z"
/>
<path fill="#ed4242" d="
  M 439.02 141.76
  L 438.98 200.72
  L 433.48 200.73
  Q 433.01 200.73 433.01 200.25
  L 432.98 142.19
  Q 432.98 141.66 433.51 141.67
  L 439.02 141.76
  Z"
/>
<path fill="#ed4242" d="
  M 463.53 141.76
  L 463.61 200.72
  L 457.98 200.73
  Q 457.51 200.73 457.51 200.25
  L 457.49 142.31
  A 0.62 0.61 -89.5 0 1 458.11 141.69
  L 463.53 141.76
  Z"
/>
<path fill="#ed4242" d="
  M 489.29 141.62
  L 489.23 200.87
  L 483.73 200.66
  Q 483.10 200.64 483.10 200.02
  L 483.01 142.53
  Q 483.01 141.71 483.84 141.69
  L 489.29 141.62
  Z"
/>
<path fill="#ed4242" d="
  M 22.73 200.79
  L 22.75 141.75
  L 28.26 141.82
  Q 28.76 141.83 28.76 142.33
  L 28.76 200.55
  A 0.21 0.21 0.0 0 1 28.55 200.76
  L 22.73 200.79
  Z"
/>
<path fill="#f06c6c" d="
  M 40.50 141.78
  L 40.52 200.72
  L 34.98 200.73
  Q 34.50 200.73 34.50 200.25
  L 34.50 142.25
  Q 34.50 141.77 34.98 141.77
  L 40.50 141.78
  Z"
/>
<path fill="#ef5555" d="
  M 40.50 141.78
  L 49.45 141.80
  L 49.43 200.70
  L 40.52 200.72
  L 40.50 141.78
  Z"
/>
<path fill="#ed4242" d="
  M 49.45 141.80
  L 55.15 141.84
  Q 55.75 141.85 55.75 142.44
  L 55.75 200.06
  Q 55.75 200.65 55.15 200.66
  L 49.43 200.70
  L 49.45 141.80
  Z"
/>
<path fill="#f06c6c" d="
  M 67.29 141.78
  L 67.36 200.72
  L 61.73 200.73
  Q 61.25 200.73 61.25 200.25
  L 61.25 142.25
  Q 61.25 141.77 61.73 141.77
  L 67.29 141.78
  Z"
/>
<path fill="#ef5555" d="
  M 67.29 141.78
  L 75.09 141.79
  L 75.17 200.70
  L 67.36 200.72
  L 67.29 141.78
  Z"
/>
<path fill="#ed4242" d="
  M 75.09 141.79
  L 80.61 141.80
  Q 81.25 141.81 81.25 142.45
  L 81.25 200.06
  Q 81.25 200.66 80.65 200.66
  L 75.17 200.70
  L 75.09 141.79
  Z"
/>
<path fill="#f06c6c" d="
  M 92.90 141.80
  L 93.04 200.73
  L 87.63 200.89
  Q 87.00 200.91 87.00 200.28
  L 87.00 142.44
  Q 87.00 141.84 87.59 141.84
  L 92.90 141.80
  Z"
/>
<path fill="#ef5555" d="
  M 92.90 141.80
  L 99.75 141.79
  L 99.75 200.74
  L 93.04 200.73
  L 92.90 141.80
  Z"
/>
<path fill="#ed4242" d="
  M 99.75 141.79
  L 105.50 141.80
  Q 106.04 141.80 106.03 142.33
  L 105.78 200.31
  A 0.56 0.56 0.0 0 1 105.20 200.87
  L 99.75 200.74
  L 99.75 141.79
  Z"
/>
<path fill="#f06c6c" d="
  M 116.41 141.78
  L 116.41 200.72
  L 111.98 200.73
  Q 111.50 200.73 111.50 200.25
  L 111.50 142.25
  Q 111.50 141.77 111.98 141.77
  L 116.41 141.78
  Z"
/>
<path fill="#ef5555" d="
  M 116.41 141.78
  L 125.28 141.80
  L 125.33 200.70
  L 116.41 200.72
  L 116.41 141.78
  Z"
/>
<path fill="#ed4242" d="
  M 125.28 141.80
  L 130.89 141.84
  A 0.61 0.61 0.0 0 1 131.50 142.45
  L 131.50 200.05
  Q 131.50 200.66 130.89 200.66
  L 125.33 200.70
  L 125.28 141.80
  Z"
/>
<path fill="#f06c6c" d="
  M 142.06 141.69
  L 142.06 200.75
  L 137.73 200.73
  Q 137.25 200.73 137.25 200.25
  L 137.25 142.24
  A 0.49 0.49 0.0 0 1 137.73 141.75
  L 142.06 141.69
  Z"
/>
<path fill="#f06c6c" d="
  M 368.83 141.78
  L 374.27 141.77
  Q 374.75 141.77 374.75 142.25
  L 374.75 200.25
  Q 374.75 200.73 374.27 200.73
  L 368.88 200.75
  L 368.83 141.78
  Z"
/>
<path fill="#ef5555" d="
  M 386.48 141.78
  L 395.59 141.78
  L 395.53 200.73
  L 386.51 200.73
  L 386.48 141.78
  Z"
/>
<path fill="#f06c6c" d="
  M 395.59 141.78
  L 400.83 141.80
  Q 401.50 141.80 401.50 142.47
  L 401.50 200.25
  Q 401.50 200.73 401.02 200.73
  L 395.53 200.73
  L 395.59 141.78
  Z"
/>
<path fill="#ef5555" d="
  M 413.27 141.77
  L 421.15 141.77
  L 421.22 200.72
  L 413.35 200.78
  L 413.27 141.77
  Z"
/>
<path fill="#f06c6c" d="
  M 421.15 141.77
  L 426.77 141.77
  Q 427.25 141.77 427.25 142.25
  L 427.25 200.24
  Q 427.25 200.67 426.82 200.67
  L 421.22 200.72
  L 421.15 141.77
  Z"
/>
<path fill="#ef5555" d="
  M 439.02 141.76
  L 444.59 141.77
  L 444.66 200.72
  L 438.98 200.72
  L 439.02 141.76
  Z"
/>
<path fill="#f06c6c" d="
  M 444.59 141.77
  L 451.27 141.77
  Q 451.75 141.77 451.75 142.25
  L 451.75 200.24
  Q 451.75 200.73 451.27 200.73
  L 444.66 200.72
  L 444.59 141.77
  Z"
/>
<path fill="#ef5555" d="
  M 463.53 141.76
  L 470.27 141.77
  L 470.32 200.70
  L 463.61 200.72
  L 463.53 141.76
  Z"
/>
<path fill="#f06c6c" d="
  M 470.27 141.77
  L 477.02 141.77
  Q 477.50 141.77 477.50 142.25
  L 477.50 200.05
  Q 477.50 200.65 476.90 200.66
  L 470.32 200.70
  L 470.27 141.77
  Z"
/>
<path fill="#ef5555" d="
  M 489.29 141.62
  Q 499.97 142.85 503.51 151.21
  C 506.47 158.22 505.00 172.27 505.01 180.55
  C 505.02 191.71 501.62 199.75 489.23 200.87
  L 489.29 141.62
  Z"
/>
<path fill="#ef5555" d="
  M 22.75 141.75
  L 22.73 200.79
  C 12.93 199.04 8.80 192.53 8.76 183.14
  Q 8.71 171.26 8.77 159.40
  C 8.82 149.97 12.96 143.61 22.75 141.75
  Z"
/>
<path fill="#f06c6c" d="
  M 287.92 167.97
  L 265.15 150.03
  L 268.46 147.23
  Q 268.88 146.87 269.32 147.21
  Q 278.33 154.26 287.28 161.19
  Q 291.08 164.13 287.92 167.97
  Z"
/>
<path fill="#ef5555" d="
  M 265.15 150.03
  L 287.92 167.97
  C 285.81 169.89 283.63 169.67 281.35 167.93
  Q 271.74 160.60 262.24 153.03
  Q 261.77 152.66 262.24 152.29
  L 265.15 150.03
  Z"
/>
<path fill="#ffffff" d="
  M 48.26 207.00
  L 48.21 452.49
  L 31.02 452.49
  A 0.53 0.53 0.0 0 1 30.49 451.96
  L 30.53 207.95
  A 0.95 0.94 90.0 0 1 31.47 207.00
  L 48.26 207.00
  Z"
/>
<path fill="#f6f1f3" d="
  M 48.26 207.00
  L 463.50 207.00
  L 463.50 452.49
  L 307.50 452.48
  Q 307.00 452.48 307.00 451.99
  L 307.00 324.50
  A 3.25 3.25 0.0 0 0 303.75 321.25
  L 208.25 321.25
  A 3.25 3.25 0.0 0 0 205.00 324.50
  L 205.00 451.99
  Q 205.00 452.48 204.50 452.48
  L 48.21 452.49
  L 48.26 207.00
  Z
  M 208.14 312.75
  L 303.92 312.75
  A 2.94 2.94 0.0 0 0 306.86 309.81
  L 306.86 305.75
  A 51.20 50.68 90.0 0 0 256.18 254.55
  L 255.88 254.55
  A 51.20 50.68 -90.0 0 0 205.20 305.75
  L 205.20 309.81
  A 2.94 2.94 0.0 0 0 208.14 312.75
  Z
  M 72.19 369.49
  C 70.04 369.51 64.83 368.77 64.79 372.31
  Q 64.70 380.65 64.77 388.55
  A 3.23 3.22 -0.2 0 0 68.00 391.75
  L 167.75 391.75
  A 3.00 3.00 0.0 0 0 170.75 388.75
  L 170.75 372.25
  A 2.75 2.75 0.0 0 0 168.00 369.50
  L 161.51 369.50
  Q 161.00 369.50 161.00 368.99
  Q 161.00 344.14 161.00 319.30
  Q 160.99 308.07 159.58 302.45
  C 150.71 267.14 105.85 257.22 82.68 285.32
  Q 72.68 297.45 72.73 314.00
  Q 72.81 341.48 72.72 368.96
  Q 72.72 369.49 72.19 369.49
  Z
  M 351.25 369.50
  L 346.50 369.50
  A 2.75 2.75 0.0 0 0 343.75 372.25
  L 343.75 388.75
  A 3.00 3.00 0.0 0 0 346.75 391.75
  L 446.76 391.75
  A 2.98 2.98 0.0 0 0 449.74 388.77
  Q 449.76 381.15 449.75 373.13
  C 449.74 367.86 443.88 369.76 440.55 369.40
  Q 439.99 369.35 440.00 368.79
  Q 440.37 343.77 440.08 318.74
  Q 439.94 307.23 438.37 301.42
  C 426.23 256.54 362.34 259.43 352.84 304.38
  C 351.48 310.87 352.06 318.91 351.92 326.09
  C 351.63 340.49 352.07 354.64 351.83 368.93
  Q 351.82 369.50 351.25 369.50
  Z"
/>
<path fill="#e0d7d7" d="
  M 463.50 207.00
  L 481.02 207.02
  Q 481.50 207.02 481.50 207.51
  L 481.50 451.99
  Q 481.50 452.48 481.02 452.48
  L 463.50 452.49
  L 463.50 207.00
  Z"
/>
<path fill="#491f58" d="
  M 208.14 312.75
  A 2.94 2.94 0.0 0 1 205.20 309.81
  L 205.20 305.75
  A 51.20 50.68 -90.0 0 1 255.88 254.55
  L 256.18 254.55
  A 51.20 50.68 -90.0 0 1 306.86 305.75
  L 306.86 309.81
  A 2.94 2.94 0.0 0 1 303.92 312.75
  L 208.14 312.75
  Z
  M 221.06 307.23
  L 300.69 307.24
  Q 301.16 307.24 301.18 306.76
  Q 301.58 295.14 297.04 286.25
  Q 284.05 260.84 255.86 260.35
  C 229.82 260.94 210.88 280.91 210.85 306.67
  Q 210.85 307.20 211.37 307.20
  L 221.06 307.23
  Z"
/>
<path fill="#aadae5" d="
  M 255.86 260.35
  Q 238.64 269.49 228.90 283.66
  Q 221.78 294.02 221.06 307.23
  L 211.37 307.20
  Q 210.85 307.20 210.85 306.67
  C 210.88 280.91 229.82 260.94 255.86 260.35
  Z"
/>
<path fill="#8bc5d4" d="
  M 255.86 260.35
  Q 284.05 260.84 297.04 286.25
  Q 301.58 295.14 301.18 306.76
  Q 301.16 307.24 300.69 307.24
  L 221.06 307.23
  Q 221.78 294.02 228.90 283.66
  Q 238.64 269.49 255.86 260.35
  Z
  M 244.96 273.06
  Q 244.74 272.84 244.47 272.99
  Q 239.35 275.80 235.90 280.59
  Q 235.46 281.20 235.46 281.65
  Q 235.46 282.41 236.30 282.77
  A 0.65 0.64 -59.7 0 0 237.08 282.56
  Q 240.53 277.80 245.54 274.73
  A 0.62 0.62 0.0 0 0 245.66 273.76
  L 244.96 273.06
  Z
  M 234.4397 286.0111
  A 0.94 0.94 0.0 0 0 234.0956 284.7271
  L 233.9744 284.6571
  A 0.94 0.94 0.0 0 0 232.6903 285.0011
  L 229.3603 290.7689
  A 0.94 0.94 0.0 0 0 229.7044 292.0529
  L 229.8256 292.1229
  A 0.94 0.94 0.0 0 0 231.1097 291.7789
  L 234.4397 286.0111
  Z"
/>
<path fill="#491f58" d="
  M 72.72 368.96
  Q 72.81 341.48 72.73 314.00
  Q 72.68 297.45 82.68 285.32
  C 105.85 257.22 150.71 267.14 159.58 302.45
  Q 160.99 308.07 161.00 319.30
  Q 161.00 344.14 161.00 368.99
  Q 161.00 369.50 161.51 369.50
  L 168.00 369.50
  A 2.75 2.75 0.0 0 1 170.75 372.25
  L 170.75 388.75
  A 3.00 3.00 0.0 0 1 167.75 391.75
  L 68.00 391.75
  A 3.23 3.22 -0.2 0 1 64.77 388.55
  Q 64.70 380.65 64.79 372.31
  C 64.83 368.77 70.04 369.51 72.19 369.49
  Q 72.72 369.49 72.72 368.96
  Z
  M 116.04 274.97
  C 96.01 274.02 81.14 291.03 78.55 309.47
  Q 78.48 309.99 79.00 309.99
  L 92.52 310.03
  L 143.38 309.93
  L 154.77 309.89
  Q 155.34 309.89 155.27 309.31
  C 153.06 291.06 139.02 276.13 120.22 274.95
  Q 116.73 274.06 116.04 274.97
  Z
  M 87.49 340.71
  L 113.68 340.74
  A 0.56 0.55 -0.0 0 0 114.24 340.19
  L 114.20 320.77
  L 114.23 316.24
  Q 114.23 315.75 113.74 315.75
  L 79.28 315.75
  Q 78.50 315.75 78.50 316.53
  L 78.50 340.25
  Q 78.50 340.72 78.98 340.72
  L 87.49 340.71
  Z
  M 155.49 316.06
  A 0.31 0.31 0.0 0 0 155.18 315.75
  L 120.06 315.75
  A 0.31 0.31 0.0 0 0 119.75 316.06
  L 119.75 340.44
  A 0.31 0.31 0.0 0 0 120.06 340.75
  L 155.18 340.75
  A 0.31 0.31 0.0 0 0 155.49 340.44
  L 155.49 316.06
  Z
  M 114.25 346.79
  A 0.30 0.30 0.0 0 0 113.95 346.49
  L 78.79 346.49
  A 0.30 0.30 0.0 0 0 78.49 346.79
  L 78.49 368.95
  A 0.30 0.30 0.0 0 0 78.79 369.25
  L 113.95 369.25
  A 0.30 0.30 0.0 0 0 114.25 368.95
  L 114.25 346.79
  Z
  M 155.51 346.77
  A 0.27 0.27 0.0 0 0 155.24 346.50
  L 120.02 346.50
  A 0.27 0.27 0.0 0 0 119.75 346.77
  L 119.75 368.99
  A 0.27 0.27 0.0 0 0 120.02 369.26
  L 155.24 369.26
  A 0.27 0.27 0.0 0 0 155.51 368.99
  L 155.51 346.77
  Z
  M 81.50 386.06
  L 153.26 386.08
  L 164.65 385.88
  Q 165.25 385.87 165.25 385.26
  L 165.25 375.79
  Q 165.25 375.30 164.75 375.29
  L 153.48 375.26
  L 81.56 375.26
  L 70.79 375.22
  Q 70.25 375.21 70.25 375.75
  L 70.25 385.74
  A 0.54 0.54 0.0 0 0 70.80 386.28
  L 81.50 386.06
  Z"
/>
<path fill="#491f58" d="
  M 351.83 368.93
  C 352.07 354.64 351.63 340.49 351.92 326.09
  C 352.06 318.91 351.48 310.87 352.84 304.38
  C 362.34 259.43 426.23 256.54 438.37 301.42
  Q 439.94 307.23 440.08 318.74
  Q 440.37 343.77 440.00 368.79
  Q 439.99 369.35 440.55 369.40
  C 443.88 369.76 449.74 367.86 449.75 373.13
  Q 449.76 381.15 449.74 388.77
  A 2.98 2.98 0.0 0 1 446.76 391.75
  L 346.75 391.75
  A 3.00 3.00 0.0 0 1 343.75 388.75
  L 343.75 372.25
  A 2.75 2.75 0.0 0 1 346.50 369.50
  L 351.25 369.50
  Q 351.82 369.50 351.83 368.93
  Z
  M 371.57 310.02
  L 422.35 310.01
  L 433.53 310.21
  A 0.69 0.69 0.0 0 0 434.23 309.46
  C 432.37 290.73 417.73 276.25 398.81 274.87
  L 395.75 274.67
  C 375.69 275.27 359.77 289.50 357.80 309.46
  Q 357.74 309.99 358.28 309.99
  L 371.57 310.02
  Z
  M 366.39 340.70
  L 392.69 340.74
  A 0.56 0.55 -90.0 0 0 393.24 340.18
  L 393.20 320.77
  L 393.22 316.22
  Q 393.22 315.75 392.75 315.75
  L 358.03 315.75
  Q 357.50 315.75 357.50 316.28
  L 357.50 340.24
  Q 357.50 340.73 357.99 340.73
  L 366.39 340.70
  Z
  M 434.50 316.06
  A 0.31 0.31 0.0 0 0 434.19 315.75
  L 399.07 315.75
  A 0.31 0.31 0.0 0 0 398.76 316.06
  L 398.76 340.44
  A 0.31 0.31 0.0 0 0 399.07 340.75
  L 434.19 340.75
  A 0.31 0.31 0.0 0 0 434.50 340.44
  L 434.50 316.06
  Z
  M 393.24 346.79
  A 0.30 0.30 0.0 0 0 392.94 346.49
  L 357.80 346.49
  A 0.30 0.30 0.0 0 0 357.50 346.79
  L 357.50 368.95
  A 0.30 0.30 0.0 0 0 357.80 369.25
  L 392.94 369.25
  A 0.30 0.30 0.0 0 0 393.24 368.95
  L 393.24 346.79
  Z
  M 434.51 346.77
  A 0.27 0.27 0.0 0 0 434.24 346.50
  L 399.02 346.50
  A 0.27 0.27 0.0 0 0 398.75 346.77
  L 398.75 368.99
  A 0.27 0.27 0.0 0 0 399.02 369.26
  L 434.24 369.26
  A 0.27 0.27 0.0 0 0 434.51 368.99
  L 434.51 346.77
  Z
  M 360.28 386.02
  L 432.21 386.01
  L 443.34 386.16
  A 0.90 0.90 0.0 0 0 444.25 385.26
  L 444.25 375.75
  Q 444.25 375.21 443.71 375.21
  L 432.05 375.25
  L 360.31 375.25
  L 349.79 375.21
  Q 349.25 375.21 349.25 375.75
  L 349.25 385.71
  Q 349.25 386.19 349.73 386.18
  L 360.28 386.02
  Z"
/>
<path fill="#ffffff" d="
  M 244.96 273.06
  L 245.66 273.76
  A 0.62 0.62 0.0 0 1 245.54 274.73
  Q 240.53 277.80 237.08 282.56
  A 0.65 0.64 -59.7 0 1 236.30 282.77
  Q 235.46 282.41 235.46 281.65
  Q 235.46 281.20 235.90 280.59
  Q 239.35 275.80 244.47 272.99
  Q 244.74 272.84 244.96 273.06
  Z"
/>
<path fill="#ef5555" d="
  M 120.22 274.95
  Q 140.65 287.05 143.38 309.93
  L 92.52 310.03
  Q 93.16 307.19 93.77 304.51
  Q 98.15 285.24 116.04 274.97
  Q 116.73 274.06 120.22 274.95
  Z"
/>
<path fill="#f06c6c" d="
  M 395.75 274.67
  Q 384.67 280.71 378.83 289.83
  Q 373.13 298.74 371.57 310.02
  L 358.28 309.99
  Q 357.74 309.99 357.80 309.46
  C 359.77 289.50 375.69 275.27 395.75 274.67
  Z"
/>
<path fill="#ef5555" d="
  M 395.75 274.67
  L 398.81 274.87
  Q 419.66 286.68 422.35 310.01
  L 371.57 310.02
  Q 373.13 298.74 378.83 289.83
  Q 384.67 280.71 395.75 274.67
  Z"
/>
<path fill="#f06c6c" d="
  M 116.04 274.97
  Q 98.15 285.24 93.77 304.51
  Q 93.16 307.19 92.52 310.03
  L 79.00 309.99
  Q 78.48 309.99 78.55 309.47
  C 81.14 291.03 96.01 274.02 116.04 274.97
  Z"
/>
<path fill="#ed4242" d="
  M 120.22 274.95
  C 139.02 276.13 153.06 291.06 155.27 309.31
  Q 155.34 309.89 154.77 309.89
  L 143.38 309.93
  Q 140.65 287.05 120.22 274.95
  Z"
/>
<path fill="#ed4242" d="
  M 398.81 274.87
  C 417.73 276.25 432.37 290.73 434.23 309.46
  A 0.69 0.69 0.0 0 1 433.53 310.21
  L 422.35 310.01
  Q 419.66 286.68 398.81 274.87
  Z"
/>
<rect fill="#ffffff" x="-1.01" y="-4.27" transform="translate(231.90,288.39) rotate(30.0)" width="2.02" height="8.54" rx="0.94"/>
<path fill="#aadae5" d="
  M 393.20 320.77
  L 377.77 329.85
  Q 379.44 328.12 378.91 326.97
  A 0.74 0.73 58.8 0 0 377.79 326.69
  L 373.26 330.16
  A 0.70 0.69 75.0 0 0 373.01 330.60
  Q 372.87 331.60 374.79 332.34
  L 366.39 340.70
  L 357.99 340.73
  Q 357.50 340.73 357.50 340.24
  L 357.50 316.28
  Q 357.50 315.75 358.03 315.75
  L 392.75 315.75
  Q 393.22 315.75 393.22 316.22
  L 393.20 320.77
  Z
  M 378.3425 324.0453
  A 1.05 1.05 0.0 0 0 376.8693 323.8592
  L 370.3268 328.9341
  A 1.05 1.05 0.0 0 0 370.1407 330.4073
  L 370.1775 330.4547
  A 1.05 1.05 0.0 0 0 371.6507 330.6408
  L 378.1932 325.5659
  A 1.05 1.05 0.0 0 0 378.3793 324.0927
  L 378.3425 324.0453
  Z"
/>
<path fill="#aadae5" d="
  M 114.20 320.77
  L 100.15 328.84
  L 99.76 327.04
  A 0.54 0.54 0.0 0 0 99.00 326.67
  Q 96.56 327.89 94.66 329.89
  Q 93.91 330.68 94.10 331.19
  Q 94.35 331.82 95.77 332.06
  L 95.66 332.41
  Q 95.51 332.85 95.17 333.18
  L 87.49 340.71
  L 78.98 340.72
  Q 78.50 340.72 78.50 340.25
  L 78.50 316.53
  Q 78.50 315.75 79.28 315.75
  L 113.74 315.75
  Q 114.23 315.75 114.23 316.24
  L 114.20 320.77
  Z
  M 99.3644 324.0298
  A 1.09 1.09 0.0 0 0 97.8334 323.8500
  L 91.3983 328.9321
  A 1.09 1.09 0.0 0 0 91.2184 330.4631
  L 91.2556 330.5102
  A 1.09 1.09 0.0 0 0 92.7866 330.6900
  L 99.2217 325.6079
  A 1.09 1.09 0.0 0 0 99.4016 324.0769
  L 99.3644 324.0298
  Z"
/>
<path fill="#8bc5d4" d="
  M 155.49 340.44
  A 0.31 0.31 0.0 0 1 155.18 340.75
  L 120.06 340.75
  A 0.31 0.31 0.0 0 1 119.75 340.44
  L 119.75 316.06
  A 0.31 0.31 0.0 0 1 120.06 315.75
  L 155.18 315.75
  A 0.31 0.31 0.0 0 1 155.49 316.06
  L 155.49 340.44
  Z
  M 143.1566 324.0198
  A 1.03 1.03 0.0 0 0 141.7111 323.8398
  L 135.2406 328.8769
  A 1.03 1.03 0.0 0 0 135.0606 330.3224
  L 135.1834 330.4802
  A 1.03 1.03 0.0 0 0 136.6289 330.6602
  L 143.0994 325.6231
  A 1.03 1.03 0.0 0 0 143.2794 324.1776
  L 143.1566 324.0198
  Z
  M 143.6585 327.0828
  A 1.05 1.05 0.0 0 0 142.1811 326.9328
  L 138.3684 330.0424
  A 1.05 1.05 0.0 0 0 138.2183 331.5197
  L 138.2815 331.5972
  A 1.05 1.05 0.0 0 0 139.7589 331.7472
  L 143.5716 328.6376
  A 1.05 1.05 0.0 0 0 143.7217 327.1603
  L 143.6585 327.0828
  Z"
/>
<path fill="#8bc5d4" d="
  M 434.50 340.44
  A 0.31 0.31 0.0 0 1 434.19 340.75
  L 399.07 340.75
  A 0.31 0.31 0.0 0 1 398.76 340.44
  L 398.76 316.06
  A 0.31 0.31 0.0 0 1 399.07 315.75
  L 434.19 315.75
  A 0.31 0.31 0.0 0 1 434.50 316.06
  L 434.50 340.44
  Z
  M 422.2417 323.9928
  A 1.08 1.08 0.0 0 0 420.7251 323.8120
  L 414.2497 328.9077
  A 1.08 1.08 0.0 0 0 414.0688 330.4243
  L 414.1183 330.4872
  A 1.08 1.08 0.0 0 0 415.6349 330.6680
  L 422.1103 325.5723
  A 1.08 1.08 0.0 0 0 422.2912 324.0557
  L 422.2417 323.9928
  Z
  M 422.6804 327.0994
  A 1.03 1.03 0.0 0 0 421.2323 326.9421
  L 417.3668 330.0501
  A 1.03 1.03 0.0 0 0 417.2095 331.4982
  L 417.2596 331.5606
  A 1.03 1.03 0.0 0 0 418.7077 331.7179
  L 422.5732 328.6099
  A 1.03 1.03 0.0 0 0 422.7305 327.1618
  L 422.6804 327.0994
  Z"
/>
<path fill="#8bc5d4" d="
  M 114.20 320.77
  L 114.24 340.19
  A 0.56 0.55 0.0 0 1 113.68 340.74
  L 87.49 340.71
  L 95.17 333.18
  Q 95.51 332.85 95.66 332.41
  L 95.77 332.06
  L 100.15 328.84
  L 114.20 320.77
  Z"
/>
<path fill="#8bc5d4" d="
  M 393.20 320.77
  L 393.24 340.18
  A 0.56 0.55 -90.0 0 1 392.69 340.74
  L 366.39 340.70
  L 374.79 332.34
  Q 375.82 330.67 377.77 329.85
  L 393.20 320.77
  Z"
/>
<rect fill="#ffffff" x="-5.19" y="-1.12" transform="translate(95.31,327.27) rotate(-38.3)" width="10.38" height="2.24" rx="1.09"/>
<rect fill="#ffffff" x="-5.13" y="-1.13" transform="translate(139.17,327.25) rotate(-37.9)" width="10.26" height="2.26" rx="1.03"/>
<rect fill="#ffffff" x="-5.19" y="-1.08" transform="translate(374.26,327.25) rotate(-37.8)" width="10.38" height="2.16" rx="1.05"/>
<rect fill="#ffffff" x="-5.20" y="-1.12" transform="translate(418.18,327.24) rotate(-38.2)" width="10.40" height="2.24" rx="1.08"/>
<path fill="#ffffff" d="
  M 100.15 328.84
  L 95.77 332.06
  Q 94.35 331.82 94.10 331.19
  Q 93.91 330.68 94.66 329.89
  Q 96.56 327.89 99.00 326.67
  A 0.54 0.54 0.0 0 1 99.76 327.04
  L 100.15 328.84
  Z"
/>
<rect fill="#ffffff" x="-3.51" y="-1.10" transform="translate(140.97,329.34) rotate(-39.2)" width="7.02" height="2.20" rx="1.05"/>
<path fill="#aadae5" d="
  M 217.53 326.76
  L 217.92 345.73
  L 211.24 345.73
  Q 210.75 345.73 210.75 345.24
  L 210.75 327.26
  Q 210.75 326.77 211.24 326.77
  L 217.53 326.76
  Z"
/>
<path fill="#8bc5d4" d="
  M 217.53 326.76
  L 301.01 326.76
  A 0.52 0.52 0.0 0 1 301.53 327.29
  L 301.41 345.21
  Q 301.41 345.73 300.89 345.73
  L 217.92 345.73
  L 217.53 326.76
  Z"
/>
<path fill="#ffffff" d="
  M 377.77 329.85
  Q 375.82 330.67 374.79 332.34
  Q 372.87 331.60 373.01 330.60
  A 0.70 0.69 75.0 0 1 373.26 330.16
  L 377.79 326.69
  A 0.74 0.73 58.8 0 1 378.91 326.97
  Q 379.44 328.12 377.77 329.85
  Z"
/>
<rect fill="#ffffff" x="-3.51" y="-1.07" transform="translate(419.97,329.33) rotate(-38.8)" width="7.02" height="2.14" rx="1.03"/>
<path fill="#8bc5d4" d="
  M 114.25 368.95
  A 0.30 0.30 0.0 0 1 113.95 369.25
  L 78.79 369.25
  A 0.30 0.30 0.0 0 1 78.49 368.95
  L 78.49 346.79
  A 0.30 0.30 0.0 0 1 78.79 346.49
  L 113.95 346.49
  A 0.30 0.30 0.0 0 1 114.25 346.79
  L 114.25 368.95
  Z
  M 99.3025 353.0044
  A 1.06 1.06 0.0 0 0 97.8137 352.8295
  L 91.3628 357.9240
  A 1.06 1.06 0.0 0 0 91.1879 359.4129
  L 91.2375 359.4756
  A 1.06 1.06 0.0 0 0 92.7263 359.6505
  L 99.1772 354.5560
  A 1.06 1.06 0.0 0 0 99.3521 353.0671
  L 99.3025 353.0044
  Z
  M 93.93 359.99
  L 94.79 361.05
  A 0.43 0.43 0.0 0 0 95.39 361.11
  L 98.35 358.71
  A 2.90 0.97 -39.1 0 0 99.99 356.13
  L 99.81 355.91
  A 2.90 0.97 -39.1 0 0 96.95 356.99
  L 93.99 359.39
  A 0.43 0.43 0.0 0 0 93.93 359.99
  Z"
/>
<path fill="#8bc5d4" d="
  M 393.24 368.95
  A 0.30 0.30 0.0 0 1 392.94 369.25
  L 357.80 369.25
  A 0.30 0.30 0.0 0 1 357.50 368.95
  L 357.50 346.79
  A 0.30 0.30 0.0 0 1 357.80 346.49
  L 392.94 346.49
  A 0.30 0.30 0.0 0 1 393.24 346.79
  L 393.24 368.95
  Z
  M 378.3055 352.9922
  A 1.07 1.07 0.0 0 0 376.8023 352.8182
  L 370.4387 357.8620
  A 1.07 1.07 0.0 0 0 370.2648 359.3651
  L 370.3145 359.4278
  A 1.07 1.07 0.0 0 0 371.8177 359.6018
  L 378.1813 354.5580
  A 1.07 1.07 0.0 0 0 378.3552 353.0549
  L 378.3055 352.9922
  Z
  M 378.9214 355.9693
  A 3.68 1.21 -39.7 0 0 375.3171 357.3890
  A 3.68 1.21 -39.7 0 0 373.2586 360.6707
  A 3.68 1.21 -39.7 0 0 376.8629 359.2510
  A 3.68 1.21 -39.7 0 0 378.9214 355.9693
  Z"
/>
<path fill="#8bc5d4" d="
  M 155.51 368.99
  A 0.27 0.27 0.0 0 1 155.24 369.26
  L 120.02 369.26
  A 0.27 0.27 0.0 0 1 119.75 368.99
  L 119.75 346.77
  A 0.27 0.27 0.0 0 1 120.02 346.50
  L 155.24 346.50
  A 0.27 0.27 0.0 0 1 155.51 346.77
  L 155.51 368.99
  Z
  M 143.1668 353.0467
  A 1.09 1.09 0.0 0 0 141.6358 352.8669
  L 135.2635 357.8995
  A 1.09 1.09 0.0 0 0 135.0836 359.4305
  L 135.1332 359.4933
  A 1.09 1.09 0.0 0 0 136.6642 359.6731
  L 143.0365 354.6405
  A 1.09 1.09 0.0 0 0 143.2164 353.1095
  L 143.1668 353.0467
  Z
  M 137.70 359.95
  L 138.81 361.24
  A 0.29 0.29 0.0 0 0 139.22 361.27
  L 141.69 359.15
  A 3.72 1.03 -40.7 0 0 143.83 355.95
  L 143.69 355.78
  A 3.72 1.03 -40.7 0 0 140.20 357.42
  L 137.73 359.54
  A 0.29 0.29 0.0 0 0 137.70 359.95
  Z"
/>
<path fill="#8bc5d4" d="
  M 434.51 368.99
  A 0.27 0.27 0.0 0 1 434.24 369.26
  L 399.02 369.26
  A 0.27 0.27 0.0 0 1 398.75 368.99
  L 398.75 346.77
  A 0.27 0.27 0.0 0 1 399.02 346.50
  L 434.24 346.50
  A 0.27 0.27 0.0 0 1 434.51 346.77
  L 434.51 368.99
  Z
  M 422.1740 353.0491
  A 1.07 1.07 0.0 0 0 420.6717 352.8673
  L 414.2661 357.8900
  A 1.07 1.07 0.0 0 0 414.0843 359.3922
  L 414.1460 359.4709
  A 1.07 1.07 0.0 0 0 415.6483 359.6527
  L 422.0539 354.6300
  A 1.07 1.07 0.0 0 0 422.2357 353.1278
  L 422.1740 353.0491
  Z
  M 416.81 359.94
  L 417.70 361.05
  A 0.44 0.44 0.0 0 0 418.32 361.12
  L 420.80 359.12
  A 3.57 0.97 -38.8 0 0 422.98 356.12
  L 422.75 355.84
  A 3.57 0.97 -38.8 0 0 419.36 357.32
  L 416.88 359.32
  A 0.44 0.44 0.0 0 0 416.81 359.94
  Z"
/>
<path fill="#ed4242" d="
  M 217.51 351.51
  L 217.58 451.97
  L 211.35 451.91
  Q 210.75 451.90 210.75 451.30
  L 210.75 351.98
  Q 210.75 351.45 211.28 351.46
  L 217.51 351.51
  Z"
/>
<path fill="#ef5555" d="
  M 217.51 351.51
  L 248.24 351.51
  L 248.23 451.97
  L 217.58 451.97
  L 217.51 351.51
  Z
  M 245.25 393.11
  A 1.08 1.08 0.0 0 0 244.17 392.03
  L 244.11 392.03
  A 1.08 1.08 0.0 0 0 243.03 393.11
  L 243.03 403.93
  A 1.08 1.08 0.0 0 0 244.11 405.01
  L 244.17 405.01
  A 1.08 1.08 0.0 0 0 245.25 403.93
  L 245.25 393.11
  Z
  M 245.25 408.34
  A 1.04 1.04 0.0 0 0 244.21 407.30
  L 244.11 407.30
  A 1.04 1.04 0.0 0 0 243.07 408.34
  L 243.07 412.18
  A 1.04 1.04 0.0 0 0 244.11 413.22
  L 244.21 413.22
  A 1.04 1.04 0.0 0 0 245.25 412.18
  L 245.25 408.34
  Z"
/>
<path fill="#f06c6c" d="
  M 248.24 351.51
  L 252.77 351.52
  Q 253.25 351.52 253.25 352.00
  L 253.25 451.31
  Q 253.25 451.90 252.66 451.91
  L 248.23 451.97
  L 248.24 351.51
  Z"
/>
<path fill="#f06c6c" d="
  M 263.82 351.52
  L 263.80 451.97
  L 259.34 451.91
  Q 258.75 451.90 258.75 451.31
  L 258.75 352.19
  Q 258.75 351.60 259.34 351.59
  L 263.82 351.52
  Z"
/>
<path fill="#ef5555" d="
  M 263.82 351.52
  L 295.03 351.51
  L 295.04 451.97
  L 263.80 451.97
  L 263.82 351.52
  Z
  M 268.6621 393.0625
  A 1.06 1.06 0.0 0 0 267.5948 392.0099
  L 267.5148 392.0104
  A 1.06 1.06 0.0 0 0 266.4622 393.0778
  L 266.5379 403.9175
  A 1.06 1.06 0.0 0 0 267.6052 404.9701
  L 267.6852 404.9696
  A 1.06 1.06 0.0 0 0 268.7378 403.9022
  L 268.6621 393.0625
  Z
  M 268.6508 408.3124
  A 0.99 0.99 0.0 0 0 267.6818 407.3019
  L 267.5618 407.2994
  A 0.99 0.99 0.0 0 0 266.5513 408.2684
  L 266.4692 412.1876
  A 0.99 0.99 0.0 0 0 267.4382 413.1981
  L 267.5582 413.2006
  A 0.99 0.99 0.0 0 0 268.5687 412.2316
  L 268.6508 408.3124
  Z"
/>
<path fill="#ed4242" d="
  M 295.03 351.51
  L 300.25 351.52
  Q 301.49 351.52 301.49 352.75
  L 301.50 451.24
  Q 301.50 451.86 300.87 451.87
  L 295.04 451.97
  L 295.03 351.51
  Z"
/>
<rect fill="#ffffff" x="-5.17" y="-1.10" transform="translate(95.27,356.24) rotate(-38.3)" width="10.34" height="2.20" rx="1.06"/>
<rect fill="#ffffff" x="-5.13" y="-1.11" transform="translate(374.31,356.21) rotate(-38.4)" width="10.26" height="2.22" rx="1.07"/>
<rect fill="#ffffff" x="-5.15" y="-1.13" transform="translate(139.15,356.27) rotate(-38.3)" width="10.30" height="2.26" rx="1.09"/>
<rect fill="#ffffff" x="-5.14" y="-1.12" transform="translate(418.16,356.26) rotate(-38.1)" width="10.28" height="2.24" rx="1.07"/>
<path fill="#ffffff" d="
  M 93.93 359.99
  A 0.43 0.43 0.0 0 1 93.99 359.39
  L 96.95 356.99
  A 2.90 0.97 -39.1 0 1 99.81 355.91
  L 99.99 356.13
  A 2.90 0.97 -39.1 0 1 98.35 358.71
  L 95.39 361.11
  A 0.43 0.43 0.0 0 1 94.79 361.05
  L 93.93 359.99
  Z"
/>
<path fill="#ffffff" d="
  M 137.70 359.95
  A 0.29 0.29 0.0 0 1 137.73 359.54
  L 140.20 357.42
  A 3.72 1.03 -40.7 0 1 143.69 355.78
  L 143.83 355.95
  A 3.72 1.03 -40.7 0 1 141.69 359.15
  L 139.22 361.27
  A 0.29 0.29 0.0 0 1 138.81 361.24
  L 137.70 359.95
  Z"
/>
<ellipse fill="#ffffff" cx="0.00" cy="0.00" transform="translate(376.09,358.32) rotate(-39.7)" rx="3.68" ry="1.21"/>
<path fill="#ffffff" d="
  M 416.81 359.94
  A 0.44 0.44 0.0 0 1 416.88 359.32
  L 419.36 357.32
  A 3.57 0.97 -38.8 0 1 422.75 355.84
  L 422.98 356.12
  A 3.57 0.97 -38.8 0 1 420.80 359.12
  L 418.32 361.12
  A 0.44 0.44 0.0 0 1 417.70 361.05
  L 416.81 359.94
  Z"
/>
<path fill="#f06c6c" d="
  M 81.56 375.26
  L 81.50 386.06
  L 70.80 386.28
  A 0.54 0.54 0.0 0 1 70.25 385.74
  L 70.25 375.75
  Q 70.25 375.21 70.79 375.22
  L 81.56 375.26
  Z"
/>
<path fill="#f06c6c" d="
  M 360.31 375.25
  L 360.28 386.02
  L 349.73 386.18
  Q 349.25 386.19 349.25 385.71
  L 349.25 375.75
  Q 349.25 375.21 349.79 375.21
  L 360.31 375.25
  Z"
/>
<path fill="#ed4242" d="
  M 432.21 386.01
  L 432.05 375.25
  L 443.71 375.21
  Q 444.25 375.21 444.25 375.75
  L 444.25 385.26
  A 0.90 0.90 0.0 0 1 443.34 386.16
  L 432.21 386.01
  Z"
/>
<path fill="#ef5555" d="
  M 81.56 375.26
  L 153.48 375.26
  L 153.26 386.08
  L 81.50 386.06
  L 81.56 375.26
  Z"
/>
<path fill="#ed4242" d="
  M 153.48 375.26
  L 164.75 375.29
  Q 165.25 375.30 165.25 375.79
  L 165.25 385.26
  Q 165.25 385.87 164.65 385.88
  L 153.26 386.08
  L 153.48 375.26
  Z"
/>
<path fill="#ef5555" d="
  M 360.31 375.25
  L 432.05 375.25
  L 432.21 386.01
  L 360.28 386.02
  L 360.31 375.25
  Z"
/>
<rect fill="#ffffff" x="243.03" y="392.03" width="2.22" height="12.98" rx="1.08"/>
<rect fill="#ffffff" x="-1.10" y="-6.48" transform="translate(267.60,398.49) rotate(-0.4)" width="2.20" height="12.96" rx="1.06"/>
<rect fill="#ffffff" x="243.07" y="407.30" width="2.18" height="5.92" rx="1.04"/>
<rect fill="#ffffff" x="-1.05" y="-2.95" transform="translate(267.56,410.25) rotate(1.2)" width="2.10" height="5.90" rx="0.99"/>
<path fill="#f06c6c" d="
  M 506.24 463.50
  L 5.67 463.52
  L 5.69 458.49
  A 0.24 0.24 0.0 0 1 5.93 458.25
  L 505.93 458.25
  Q 506.44 458.25 506.42 458.77
  L 506.24 463.50
  Z"
/>
<path fill="#ef5555" d="
  M 506.24 463.50
  L 506.44 471.49
  Q 505.41 470.50 501.75 470.50
  Q 253.77 470.49 5.79 470.51
  L 5.67 463.52
  L 506.24 463.50
  Z"
/>
<path fill="#ed4242" d="
  M 506.44 471.49
  L 506.43 474.90
  A 0.61 0.61 0.0 0 1 505.82 475.50
  L 6.22 475.50
  Q 5.64 475.50 5.65 474.91
  L 5.79 470.51
  Q 253.77 470.49 501.75 470.50
  Q 505.41 470.50 506.44 471.49
  Z"
/>
</svg>
