<?xml version="1.0" encoding="UTF-8" standalone="no"?>
<!DOCTYPE svg PUBLIC "-//W3C//DTD SVG 1.1//EN" "http://www.w3.org/Graphics/SVG/1.1/DTD/svg11.dtd">
<svg xmlns="http://www.w3.org/2000/svg" version="1.1" viewBox="0 0 500 500">
<g stroke-width="2.00" fill="none" stroke-linecap="butt">
<path stroke="#7e7efd" vector-effect="non-scaling-stroke" d="
  M 282.12 242.82
  Q 280.96 243.33 280.00 242.71"
/>
<path stroke="#7e7e7e" vector-effect="non-scaling-stroke" d="
  M 280.00 242.71
  L 247.54 193.75"
/>
<path stroke="#7e7e7e" vector-effect="non-scaling-stroke" d="
  M 246.04 194.25
  L 268.62 327.11
  Q 268.84 328.42 269.97 327.72
  L 316.01 299.23
  Q 316.83 298.73 316.30 297.93
  L 305.54 281.50"
/>
<path stroke="#fd7e7e" vector-effect="non-scaling-stroke" d="
  M 305.54 281.50
  Q 306.49 280.61 307.71 281.25"
/>
<path stroke="#7e7efd" vector-effect="non-scaling-stroke" d="
  M 284.71 246.25
  L 282.50 246.29"
/>
<path stroke="#01007f" vector-effect="non-scaling-stroke" d="
  M 280.00 242.71
  L 269.06 242.92
  Q 268.35 242.93 268.31 243.65
  L 268.23 245.37
  Q 268.19 246.07 268.89 246.08
  L 282.50 246.29"
/>
<path stroke="#7e7e7e" vector-effect="non-scaling-stroke" d="
  M 282.50 246.29
  L 284.54 249.75"
/>
<path stroke="#007e7f" vector-effect="non-scaling-stroke" d="
  M 284.54 249.75
  L 273.84 249.94
  Q 273.25 249.95 273.25 250.54
  L 273.25 252.37
  Q 273.25 253.00 273.87 253.00
  L 285.69 253.00
  Q 286.11 253.00 286.47 253.21
  L 286.96 253.50"
/>
<path stroke="#7e7e7e" vector-effect="non-scaling-stroke" d="
  M 286.96 253.50
  L 289.25 256.71"
/>
<path stroke="#008000" vector-effect="non-scaling-stroke" d="
  M 289.25 256.71
  L 279.15 256.92
  Q 278.50 256.93 278.50 257.59
  L 278.50 259.42
  Q 278.50 260.06 279.15 260.07
  L 291.75 260.29"
/>
<path stroke="#7e7e7e" vector-effect="non-scaling-stroke" d="
  M 291.75 260.29
  L 293.71 263.75"
/>
<path stroke="#7f7e00" vector-effect="non-scaling-stroke" d="
  M 293.71 263.75
  Q 289.56 264.19 285.35 263.98
  C 283.64 263.90 282.83 264.31 283.30 266.20
  Q 283.52 267.06 284.40 267.07
  L 296.25 267.29"
/>
<path stroke="#7e7e7e" vector-effect="non-scaling-stroke" d="
  M 296.25 267.29
  L 298.25 270.71"
/>
<path stroke="#803900" vector-effect="non-scaling-stroke" d="
  M 298.25 270.71
  L 289.01 271.05
  Q 288.50 271.06 288.50 271.58
  L 288.50 273.42
  Q 288.50 274.07 289.15 274.09
  L 301.00 274.29"
/>
<path stroke="#7e7e7e" vector-effect="non-scaling-stroke" d="
  M 301.00 274.29
  L 302.75 277.46"
/>
<path stroke="#800000" vector-effect="non-scaling-stroke" d="
  M 302.75 277.46
  Q 298.55 278.47 294.16 277.84
  Q 293.42 277.73 293.37 278.48
  L 293.23 280.52
  Q 293.18 281.22 293.89 281.15
  Q 299.79 280.56 305.54 281.50"
/>
<path stroke="#7efcfd" vector-effect="non-scaling-stroke" d="
  M 286.50 249.46
  L 284.54 249.75"
/>
<path stroke="#fd7e7e" vector-effect="non-scaling-stroke" d="
  M 305.25 277.96
  Q 303.91 278.25 302.75 277.46"
/>
<path stroke="#fdb67e" vector-effect="non-scaling-stroke" d="
  M 300.50 270.71
  Q 299.38 271.19 298.25 270.71"
/>
<path stroke="#7efd7e" vector-effect="non-scaling-stroke" d="
  M 291.04 256.25
  Q 290.35 257.09 289.25 256.71"
/>
<path stroke="#fcfc7e" vector-effect="non-scaling-stroke" d="
  M 298.50 267.04
  L 296.25 267.29"
/>
<path stroke="#7efd7e" vector-effect="non-scaling-stroke" d="
  M 294.21 260.50
  Q 293.02 259.71 291.75 260.29"
/>
<path stroke="#7efcfd" vector-effect="non-scaling-stroke" d="
  M 289.49 253.04
  Q 288.05 252.81 286.96 253.50"
/>
<path stroke="#fdb67e" vector-effect="non-scaling-stroke" d="
  M 303.00 274.04
  L 301.00 274.29"
/>
<path stroke="#fcfc7e" vector-effect="non-scaling-stroke" d="
  M 296.00 263.79
  L 293.71 263.75"
/>
<path stroke="#7e7e7e" vector-effect="non-scaling-stroke" d="
  M 169.83 314.01
  A 0.32 0.32 0.0 0 0 170.06 314.49
  L 266.51 328.64
  A 0.32 0.32 0.0 0 0 266.88 328.27
  L 242.95 188.55
  A 0.32 0.32 0.0 0 0 242.36 188.45
  L 169.83 314.01"
/>
</g>
<path fill="#fbfbfb" d="
  M 282.12 242.82
  Q 280.96 243.33 280.00 242.71
  L 247.54 193.75
  L 245.70 191.12
  Q 245.00 190.12 245.30 191.30
  L 246.04 194.25
  L 268.62 327.11
  Q 268.84 328.42 269.97 327.72
  L 316.01 299.23
  Q 316.83 298.73 316.30 297.93
  L 305.54 281.50
  Q 306.49 280.61 307.71 281.25
  L 318.37 297.52
  A 2.12 2.12 0.0 0 1 317.71 300.49
  L 269.14 330.60
  Q 268.58 330.94 267.93 330.85
  L 167.85 316.14
  A 0.96 0.96 0.0 0 1 167.16 314.71
  L 242.41 184.42
  A 0.82 0.82 0.0 0 1 243.80 184.38
  L 282.12 242.82
  Z
  M 169.83 314.01
  A 0.32 0.32 0.0 0 0 170.06 314.49
  L 266.51 328.64
  A 0.32 0.32 0.0 0 0 266.88 328.27
  L 242.95 188.55
  A 0.32 0.32 0.0 0 0 242.36 188.45
  L 169.83 314.01
  Z"
/>
<path fill="#000000" d="
  M 169.83 314.01
  L 242.36 188.45
  A 0.32 0.32 0.0 0 1 242.95 188.55
  L 266.88 328.27
  A 0.32 0.32 0.0 0 1 266.51 328.64
  L 170.06 314.49
  A 0.32 0.32 0.0 0 1 169.83 314.01
  Z"
/>
<path fill="#000000" d="
  M 247.54 193.75
  L 280.00 242.71
  L 269.06 242.92
  Q 268.35 242.93 268.31 243.65
  L 268.23 245.37
  Q 268.19 246.07 268.89 246.08
  L 282.50 246.29
  L 284.54 249.75
  L 273.84 249.94
  Q 273.25 249.95 273.25 250.54
  L 273.25 252.37
  Q 273.25 253.00 273.87 253.00
  L 285.69 253.00
  Q 286.11 253.00 286.47 253.21
  L 286.96 253.50
  L 289.25 256.71
  L 279.15 256.92
  Q 278.50 256.93 278.50 257.59
  L 278.50 259.42
  Q 278.50 260.06 279.15 260.07
  L 291.75 260.29
  L 293.71 263.75
  Q 289.56 264.19 285.35 263.98
  C 283.64 263.90 282.83 264.31 283.30 266.20
  Q 283.52 267.06 284.40 267.07
  L 296.25 267.29
  L 298.25 270.71
  L 289.01 271.05
  Q 288.50 271.06 288.50 271.58
  L 288.50 273.42
  Q 288.50 274.07 289.15 274.09
  L 301.00 274.29
  L 302.75 277.46
  Q 298.55 278.47 294.16 277.84
  Q 293.42 277.73 293.37 278.48
  L 293.23 280.52
  Q 293.18 281.22 293.89 281.15
  Q 299.79 280.56 305.54 281.50
  L 316.30 297.93
  Q 316.83 298.73 316.01 299.23
  L 269.97 327.72
  Q 268.84 328.42 268.62 327.11
  L 246.04 194.25
  L 247.54 193.75
  Z"
/>
<path fill="#0100fe" d="
  M 280.00 242.71
  Q 280.96 243.33 282.12 242.82
  L 381.09 242.96
  Q 381.75 242.96 381.75 243.62
  L 381.75 245.37
  Q 381.75 246.00 381.12 246.00
  L 285.00 246.00
  Q 284.82 246.00 284.77 246.13
  Q 284.74 246.20 284.71 246.25
  L 282.50 246.29
  L 268.89 246.08
  Q 268.19 246.07 268.23 245.37
  L 268.31 243.65
  Q 268.35 242.93 269.06 242.92
  L 280.00 242.71
  Z"
/>
<path fill="#fbfbfb" d="
  M 284.71 246.25
  L 286.50 249.46
  L 284.54 249.75
  L 282.50 246.29
  L 284.71 246.25
  Z"
/>
<path fill="#00fcfe" d="
  M 286.50 249.46
  Q 289.84 249.98 290.81 249.98
  Q 338.49 250.01 385.99 250.00
  A 0.67 0.65 -9.1 0 1 386.62 250.44
  Q 387.44 252.78 385.25 252.79
  Q 337.38 252.97 289.49 253.04
  Q 288.05 252.81 286.96 253.50
  L 286.47 253.21
  Q 286.11 253.00 285.69 253.00
  L 273.87 253.00
  Q 273.25 253.00 273.25 252.37
  L 273.25 250.54
  Q 273.25 249.95 273.84 249.94
  L 284.54 249.75
  L 286.50 249.46
  Z"
/>
<path fill="#fbfbfb" d="
  M 289.49 253.04
  L 291.04 256.25
  Q 290.35 257.09 289.25 256.71
  L 286.96 253.50
  Q 288.05 252.81 289.49 253.04
  Z"
/>
<path fill="#00ff00" d="
  M 291.04 256.25
  Q 292.69 256.93 294.56 256.93
  Q 342.86 257.02 391.16 257.00
  Q 391.81 257.00 391.77 257.65
  L 391.69 259.34
  Q 391.65 260.00 390.99 260.00
  L 294.52 260.00
  Q 294.31 260.00 294.26 260.20
  Q 294.22 260.38 294.21 260.50
  Q 293.02 259.71 291.75 260.29
  L 279.15 260.07
  Q 278.50 260.06 278.50 259.42
  L 278.50 257.59
  Q 278.50 256.93 279.15 256.92
  L 289.25 256.71
  Q 290.35 257.09 291.04 256.25
  Z"
/>
<path fill="#fbfbfb" d="
  M 294.21 260.50
  L 296.00 263.79
  L 293.71 263.75
  L 291.75 260.29
  Q 293.02 259.71 294.21 260.50
  Z"
/>
<path fill="#fdfc00" d="
  M 293.71 263.75
  L 296.00 263.79
  L 395.95 263.93
  Q 396.65 263.93 396.69 264.63
  L 396.77 266.37
  Q 396.81 267.01 396.17 267.01
  L 298.50 267.04
  L 296.25 267.29
  L 284.40 267.07
  Q 283.52 267.06 283.30 266.20
  C 282.83 264.31 283.64 263.90 285.35 263.98
  Q 289.56 264.19 293.71 263.75
  Z"
/>
<path fill="#fbfbfb" d="
  M 298.50 267.04
  L 300.50 270.71
  Q 299.38 271.19 298.25 270.71
  L 296.25 267.29
  L 298.50 267.04
  Z"
/>
<path fill="#ff7100" d="
  M 298.25 270.71
  Q 299.38 271.19 300.50 270.71
  C 302.26 270.85 304.11 271.13 305.84 271.11
  Q 353.46 270.56 401.09 271.06
  Q 401.82 271.06 401.77 271.80
  L 401.64 273.40
  Q 401.59 274.01 400.97 274.01
  L 303.00 274.04
  L 301.00 274.29
  L 289.15 274.09
  Q 288.50 274.07 288.50 273.42
  L 288.50 271.58
  Q 288.50 271.06 289.01 271.05
  L 298.25 270.71
  Z"
/>
<path fill="#fbfbfb" d="
  M 303.00 274.04
  L 305.25 277.96
  Q 303.91 278.25 302.75 277.46
  L 301.00 274.29
  L 303.00 274.04
  Z"
/>
<path fill="#ff0000" d="
  M 302.75 277.46
  Q 303.91 278.25 305.25 277.96
  L 406.06 277.99
  Q 406.75 277.99 406.72 278.68
  L 406.65 280.41
  Q 406.62 281.00 406.03 281.00
  L 308.00 281.00
  Q 307.82 281.00 307.77 281.13
  Q 307.74 281.20 307.71 281.25
  Q 306.49 280.61 305.54 281.50
  Q 299.79 280.56 293.89 281.15
  Q 293.18 281.22 293.23 280.52
  L 293.37 278.48
  Q 293.42 277.73 294.16 277.84
  Q 298.55 278.47 302.75 277.46
  Z"
/>
</svg>
